<svg width="110" height="88" viewBox="0 0 110 88" fill="none" xmlns="http://www.w3.org/2000/svg">
<path d="M109.83 3.61309C109.778 2.71603 109.398 1.86943 108.762 1.23403C108.127 0.598637 107.28 0.218676 106.383 0.166289C82.6555 -1.20876 63.6041 6.00567 55.4169 19.5178C50.0077 28.4511 50.0169 39.3003 55.3436 49.6498C52.3111 53.2584 50.0953 57.48 48.8479 62.0253L41.3896 54.5404C44.9744 47.0555 44.8368 39.2544 40.9312 32.7733C34.8802 22.7859 20.9125 17.4324 3.57097 18.4499C2.67379 18.5023 1.82709 18.8822 1.19162 19.5176C0.556141 20.153 0.176133 20.9996 0.123739 21.8967C-0.89851 39.2361 4.46028 53.202 14.449 59.2523C17.745 61.2663 21.5329 62.3321 25.3958 62.3324C29.145 62.2859 32.836 61.3977 36.1959 59.7335L47.6561 71.1923V84.3332C47.6561 85.3057 48.0424 86.2384 48.7302 86.926C49.4179 87.6137 50.3507 88 51.3233 88C52.2959 88 53.2287 87.6137 53.9165 86.926C54.6042 86.2384 54.9906 85.3057 54.9906 84.3332V70.8164C54.9739 64.9829 56.9593 59.3203 60.6152 54.7742C65.332 57.239 70.5631 58.5581 75.8848 58.6243C81.0299 58.6409 86.0794 57.2355 90.4759 54.5633C103.99 46.3864 111.223 27.3373 109.83 3.61309ZM18.2309 52.982C11.1989 48.7239 7.21989 38.6448 7.31616 25.6643C20.2983 25.5543 30.3787 29.5466 34.6373 36.5777C36.8605 40.2445 37.2227 44.5209 35.7649 48.9256L24.5752 37.7373C23.8819 37.0787 22.9586 36.7169 22.0024 36.7291C21.0461 36.7414 20.1324 37.1266 19.4562 37.8028C18.7799 38.479 18.3946 39.3925 18.3823 40.3487C18.3701 41.3049 18.7319 42.228 19.3906 42.9212L30.5804 54.1096C26.1751 55.5671 21.9027 55.205 18.2309 52.982ZM86.6757 48.2977C80.5331 52.0149 73.3131 52.2991 65.9786 49.2144L90.5905 24.601C91.2492 23.9077 91.6111 22.9846 91.5988 22.0284C91.5866 21.0723 91.2012 20.1587 90.525 19.4825C89.8487 18.8064 88.9351 18.4211 87.9788 18.4089C87.0225 18.3966 86.0993 18.7584 85.4059 19.417L60.7894 43.9984C57.6906 36.6647 57.9702 29.4411 61.7062 23.3038C68.0965 12.7618 83.2514 6.88571 102.656 7.33948C103.096 26.7369 97.2283 41.9083 86.6757 48.2977Z" fill="#083358"/>
</svg>
