<svg width="44" height="43" viewBox="0 0 44 43" fill="none" xmlns="http://www.w3.org/2000/svg">
<g clip-path="url(#clip0_681_324)">
<path d="M36.3349 7.18465H7.84189C5.883 7.18465 4.29808 8.78738 4.29808 10.7463L4.28027 32.116C4.28027 34.0749 5.883 35.6776 7.84189 35.6776H36.3349C38.2938 35.6776 39.8965 34.0749 39.8965 32.116V10.7463C39.8965 8.78738 38.2938 7.18465 36.3349 7.18465ZM35.6225 14.7531L23.0322 22.6243C22.4623 22.9804 21.7144 22.9804 21.1445 22.6243L8.55422 14.7531C8.10902 14.4682 7.84189 13.9873 7.84189 13.4709C7.84189 12.2778 9.14189 11.5654 10.1569 12.1887L22.0884 19.6503L34.0198 12.1887C35.0349 11.5654 36.3349 12.2778 36.3349 13.4709C36.3349 13.9873 36.0677 14.4682 35.6225 14.7531Z" fill="#7BA769"/>
</g>
<defs>
<clipPath id="clip0_681_324">
<rect width="42.7394" height="42.7394" fill="white" transform="translate(0.71875 0.0614052)"/>
</clipPath>
</defs>
</svg>
