<svg width="283" height="81" viewBox="0 0 283 81" fill="none" xmlns="http://www.w3.org/2000/svg">
<path d="M53.6587 1.68086C53.6341 1.26353 53.4552 0.869687 53.1561 0.574091C52.8569 0.278495 52.4584 0.101731 52.036 0.0773599C40.8669 -0.562334 31.8988 2.79393 28.0448 9.07998C25.4985 13.2359 25.5029 18.283 28.0103 23.0978C26.5829 24.7766 25.5398 26.7405 24.9526 28.8551L21.4417 25.373C23.1292 21.8909 23.0645 18.2617 21.226 15.2466C18.3776 10.6003 11.8025 8.10978 3.63931 8.58316C3.21698 8.60753 2.81841 8.78429 2.51928 9.07989C2.22014 9.37548 2.04125 9.76933 2.01659 10.1867C1.53539 18.2532 4.05794 24.7504 8.75994 27.565C10.3115 28.502 12.0946 28.9978 13.9129 28.9979C15.6778 28.9763 17.4153 28.5631 18.9969 27.7889L24.3915 33.1197V39.233C24.3915 39.6854 24.5734 40.1193 24.8972 40.4392C25.2209 40.7592 25.66 40.9389 26.1178 40.9389C26.5757 40.9389 27.0148 40.7592 27.3385 40.4392C27.6623 40.1193 27.8441 39.6854 27.8441 39.233V32.9448C27.8363 30.231 28.7709 27.5967 30.4918 25.4817C32.7122 26.6284 35.1746 27.2421 37.6797 27.2729C40.1017 27.2806 42.4786 26.6268 44.5482 25.3837C50.9096 21.5796 54.3147 12.7177 53.6587 1.68086ZM10.5402 24.648C7.23001 22.6671 5.35697 17.9781 5.40229 11.9394C11.5134 11.8882 16.2585 13.7455 18.2632 17.0165C19.3098 18.7223 19.4802 20.7118 18.794 22.7609L13.5267 17.5559C13.2003 17.2495 12.7657 17.0812 12.3155 17.0869C11.8654 17.0926 11.4353 17.2719 11.117 17.5864C10.7986 17.901 10.6173 18.326 10.6115 18.7708C10.6057 19.2156 10.776 19.6451 11.0861 19.9676L16.3535 25.1726C14.2798 25.8506 12.2686 25.6822 10.5402 24.648ZM42.7593 22.4688C39.8678 24.1981 36.4692 24.3303 33.0166 22.8952L44.6022 11.4447C44.9122 11.1222 45.0826 10.6928 45.0768 10.2479C45.071 9.80312 44.8896 9.37812 44.5713 9.06356C44.253 8.749 43.8229 8.56977 43.3727 8.56407C42.9226 8.55837 42.488 8.72667 42.1616 9.03308L30.5738 20.4687C29.1151 17.057 29.2468 13.6964 31.0054 10.8413C34.0135 5.93696 41.1474 3.20333 50.2817 3.41443C50.4888 12.4384 47.7268 19.4963 42.7593 22.4688Z" fill="#1C3312"/>
<path d="M26.0562 80.6083L22.278 77.2308C8.85911 65.2818 0 57.3755 0 47.7292C0 39.8229 6.3056 33.6565 14.3309 33.6565C18.8647 33.6565 23.2161 35.729 26.0562 38.9785C28.8963 35.729 33.2477 33.6565 37.7815 33.6565C45.8068 33.6565 52.1124 39.8229 52.1124 47.7292C52.1124 57.3755 43.2533 65.2818 29.8343 77.2308L26.0562 80.6083Z" fill="#1C3312"/>
<path d="M81.7259 29.0088C80.8616 29.0088 80.0945 29.1787 79.4244 29.5186C78.7641 29.8488 78.2057 30.3295 77.7493 30.9607C77.3026 31.5919 76.9627 32.3542 76.7296 33.2476C76.4966 34.141 76.3801 35.1461 76.3801 36.2628C76.3801 37.768 76.5646 39.0547 76.9336 40.1229C77.3123 41.1814 77.895 41.9922 78.6815 42.5555C79.4681 43.109 80.4829 43.3858 81.7259 43.3858C82.5902 43.3858 83.4544 43.2886 84.3187 43.0944C85.1927 42.9002 86.1395 42.6234 87.1591 42.2641V46.0514C86.2172 46.4398 85.2898 46.7166 84.377 46.8817C83.4641 47.0565 82.4396 47.1439 81.3035 47.1439C79.1088 47.1439 77.3026 46.6923 75.8848 45.7892C74.4767 44.8764 73.4328 43.6042 72.753 41.9728C72.0733 40.3317 71.7334 38.4186 71.7334 36.2337C71.7334 34.6217 71.9519 33.1456 72.3889 31.8055C72.8259 30.4654 73.4668 29.305 74.3116 28.3242C75.1565 27.3434 76.2004 26.5859 77.4434 26.0518C78.6864 25.5177 80.1139 25.2507 81.7259 25.2507C82.7844 25.2507 83.8429 25.3866 84.9014 25.6585C85.9696 25.9207 86.9892 26.2849 87.9603 26.751L86.5037 30.4217C85.7074 30.043 84.9062 29.7128 84.1002 29.4312C83.2942 29.1496 82.5028 29.0088 81.7259 29.0088ZM106.154 38.6808C106.154 40.0404 105.969 41.2445 105.6 42.2933C105.241 43.3421 104.712 44.2306 104.012 44.9589C103.323 45.6775 102.488 46.2213 101.507 46.5903C100.536 46.9594 99.4386 47.1439 98.215 47.1439C97.0691 47.1439 96.0155 46.9594 95.0541 46.5903C94.1024 46.2213 93.2721 45.6775 92.5633 44.9589C91.8641 44.2306 91.3203 43.3421 90.9318 42.2933C90.5531 41.2445 90.3637 40.0404 90.3637 38.6808C90.3637 36.8746 90.6842 35.3451 91.3251 34.0924C91.966 32.8397 92.8789 31.8881 94.0636 31.2374C95.2483 30.5868 96.6612 30.2615 98.3024 30.2615C99.827 30.2615 101.177 30.5868 102.352 31.2374C103.537 31.8881 104.464 32.8397 105.134 34.0924C105.814 35.3451 106.154 36.8746 106.154 38.6808ZM94.8939 38.6808C94.8939 39.749 95.0104 40.6473 95.2435 41.3756C95.4765 42.1039 95.8407 42.6526 96.3359 43.0216C96.8312 43.3906 97.477 43.5751 98.2733 43.5751C99.0598 43.5751 99.6959 43.3906 100.181 43.0216C100.677 42.6526 101.036 42.1039 101.259 41.3756C101.492 40.6473 101.609 39.749 101.609 38.6808C101.609 37.6029 101.492 36.7095 101.259 36.0006C101.036 35.282 100.677 34.7431 100.181 34.3838C99.6862 34.0245 99.0404 33.8448 98.2441 33.8448C97.0691 33.8448 96.2145 34.2478 95.6804 35.0538C95.1561 35.8598 94.8939 37.0688 94.8939 38.6808ZM128.95 30.2615C130.795 30.2615 132.189 30.7373 133.13 31.689C134.082 32.6309 134.558 34.1458 134.558 36.2337V46.8525H130.101V37.3407C130.101 36.1754 129.902 35.2966 129.503 34.7042C129.105 34.1119 128.489 33.8157 127.654 33.8157C126.479 33.8157 125.643 34.2381 125.148 35.0829C124.653 35.9181 124.405 37.1174 124.405 38.6808V46.8525H119.963V37.3407C119.963 36.5639 119.875 35.9132 119.7 35.3888C119.526 34.8644 119.258 34.4712 118.899 34.209C118.54 33.9468 118.079 33.8157 117.515 33.8157C116.69 33.8157 116.039 34.0245 115.563 34.442C115.097 34.8499 114.762 35.4568 114.558 36.2628C114.364 37.0591 114.267 38.0351 114.267 39.1906V46.8525H109.824V30.5674H113.218L113.816 32.6504H114.063C114.393 32.0871 114.806 31.6307 115.301 31.2811C115.806 30.9315 116.36 30.6742 116.962 30.5091C117.564 30.344 118.176 30.2615 118.797 30.2615C119.992 30.2615 121.002 30.4557 121.827 30.8441C122.662 31.2326 123.303 31.8346 123.75 32.6504H124.143C124.629 31.8152 125.313 31.2083 126.197 30.8296C127.09 30.4508 128.008 30.2615 128.95 30.2615ZM158.257 30.2615C160.102 30.2615 161.496 30.7373 162.438 31.689C163.39 32.6309 163.865 34.1458 163.865 36.2337V46.8525H159.408V37.3407C159.408 36.1754 159.209 35.2966 158.811 34.7042C158.413 34.1119 157.796 33.8157 156.961 33.8157C155.786 33.8157 154.951 34.2381 154.456 35.0829C153.96 35.9181 153.713 37.1174 153.713 38.6808V46.8525H149.27V37.3407C149.27 36.5639 149.183 35.9132 149.008 35.3888C148.833 34.8644 148.566 34.4712 148.207 34.209C147.847 33.9468 147.386 33.8157 146.823 33.8157C145.997 33.8157 145.347 34.0245 144.871 34.442C144.405 34.8499 144.07 35.4568 143.866 36.2628C143.672 37.0591 143.575 38.0351 143.575 39.1906V46.8525H139.132V30.5674H142.526L143.123 32.6504H143.371C143.701 32.0871 144.114 31.6307 144.609 31.2811C145.114 30.9315 145.667 30.6742 146.269 30.5091C146.871 30.344 147.483 30.2615 148.105 30.2615C149.299 30.2615 150.309 30.4557 151.134 30.8441C151.97 31.2326 152.611 31.8346 153.057 32.6504H153.451C153.936 31.8152 154.621 31.2083 155.504 30.8296C156.398 30.4508 157.315 30.2615 158.257 30.2615ZM183.384 30.5674V46.8525H179.976L179.379 44.7696H179.146C178.796 45.3231 178.359 45.7746 177.835 46.1242C177.31 46.4738 176.732 46.7312 176.101 46.8962C175.47 47.0613 174.814 47.1439 174.135 47.1439C172.969 47.1439 171.955 46.9399 171.09 46.5321C170.226 46.1145 169.551 45.4687 169.066 44.5948C168.59 43.7208 168.352 42.5846 168.352 41.1862V30.5674H172.795V40.0792C172.795 41.2445 173.003 42.1233 173.421 42.7157C173.839 43.3081 174.504 43.6042 175.417 43.6042C176.32 43.6042 177.029 43.4003 177.543 42.9925C178.058 42.5749 178.417 41.968 178.621 41.1717C178.835 40.3657 178.942 39.3849 178.942 38.2293V30.5674H183.384ZM197.295 30.2615C199.033 30.2615 200.432 30.7373 201.49 31.689C202.549 32.6309 203.078 34.1458 203.078 36.2337V46.8525H198.635V37.3407C198.635 36.1754 198.422 35.2966 197.994 34.7042C197.577 34.1119 196.916 33.8157 196.013 33.8157C194.654 33.8157 193.726 34.2769 193.231 35.1995C192.736 36.122 192.488 37.4524 192.488 39.1906V46.8525H188.046V30.5674H191.44L192.037 32.6504H192.284C192.634 32.0871 193.066 31.6307 193.581 31.2811C194.105 30.9315 194.683 30.6742 195.314 30.5091C195.955 30.344 196.615 30.2615 197.295 30.2615ZM212.095 30.5674V46.8525H207.652V30.5674H212.095ZM209.881 24.1873C210.541 24.1873 211.109 24.3427 211.585 24.6534C212.061 24.9545 212.299 25.5226 212.299 26.3577C212.299 27.1831 212.061 27.7561 211.585 28.0765C211.109 28.3873 210.541 28.5427 209.881 28.5427C209.21 28.5427 208.638 28.3873 208.162 28.0765C207.696 27.7561 207.462 27.1831 207.462 26.3577C207.462 25.5226 207.696 24.9545 208.162 24.6534C208.638 24.3427 209.21 24.1873 209.881 24.1873ZM226.166 29.0088C225.301 29.0088 224.534 29.1787 223.864 29.5186C223.204 29.8488 222.645 30.3295 222.189 30.9607C221.742 31.5919 221.402 32.3542 221.169 33.2476C220.936 34.141 220.82 35.1461 220.82 36.2628C220.82 37.768 221.004 39.0547 221.373 40.1229C221.752 41.1814 222.335 41.9922 223.121 42.5555C223.908 43.109 224.923 43.3858 226.166 43.3858C227.03 43.3858 227.894 43.2886 228.758 43.0944C229.632 42.9002 230.579 42.6234 231.599 42.2641V46.0514C230.657 46.4398 229.73 46.7166 228.817 46.8817C227.904 47.0565 226.879 47.1439 225.743 47.1439C223.549 47.1439 221.742 46.6923 220.325 45.7892C218.916 44.8764 217.873 43.6042 217.193 41.9728C216.513 40.3317 216.173 38.4186 216.173 36.2337C216.173 34.6217 216.392 33.1456 216.829 31.8055C217.266 30.4654 217.907 29.305 218.751 28.3242C219.596 27.3434 220.64 26.5859 221.883 26.0518C223.126 25.5177 224.554 25.2507 226.166 25.2507C227.224 25.2507 228.283 25.3866 229.341 25.6585C230.409 25.9207 231.429 26.2849 232.4 26.751L230.943 30.4217C230.147 30.043 229.346 29.7128 228.54 29.4312C227.734 29.1496 226.943 29.0088 226.166 29.0088ZM242.465 30.2324C244.65 30.2324 246.325 30.7082 247.491 31.6599C248.656 32.6115 249.239 34.0584 249.239 36.0006V46.8525H246.136L245.277 44.6385H245.16C244.694 45.2211 244.218 45.6969 243.733 46.066C243.247 46.435 242.689 46.7069 242.058 46.8817C241.426 47.0565 240.659 47.1439 239.756 47.1439C238.795 47.1439 237.93 46.9594 237.163 46.5903C236.406 46.2213 235.809 45.6581 235.372 44.9007C234.935 44.1335 234.716 43.1624 234.716 41.9874C234.716 40.2588 235.323 38.9867 236.537 38.171C237.751 37.3456 239.572 36.8892 241.999 36.8018L244.825 36.7144V36.0006C244.825 35.1461 244.602 34.5197 244.155 34.1216C243.708 33.7234 243.087 33.5243 242.291 33.5243C241.504 33.5243 240.732 33.636 239.975 33.8594C239.217 34.0827 238.46 34.3643 237.702 34.7042L236.231 31.7036C237.095 31.2471 238.062 30.8878 239.13 30.6256C240.208 30.3634 241.32 30.2324 242.465 30.2324ZM244.825 39.3072L243.106 39.3654C241.669 39.4043 240.669 39.6616 240.106 40.1375C239.552 40.6133 239.275 41.2396 239.275 42.0165C239.275 42.6963 239.474 43.1818 239.873 43.4731C240.271 43.7548 240.79 43.8956 241.431 43.8956C242.383 43.8956 243.184 43.614 243.835 43.0507C244.495 42.4875 244.825 41.6863 244.825 40.6473V39.3072ZM262.917 30.2615C263.14 30.2615 263.397 30.2761 263.689 30.3052C263.99 30.3246 264.232 30.3537 264.417 30.3926L264.082 34.5586C263.936 34.51 263.727 34.476 263.455 34.4566C263.193 34.4275 262.965 34.4129 262.771 34.4129C262.198 34.4129 261.64 34.4857 261.096 34.6314C260.562 34.777 260.081 35.015 259.654 35.3451C259.226 35.6656 258.887 36.0929 258.634 36.627C258.391 37.1514 258.27 37.7971 258.27 38.5643V46.8525H253.827V30.5674H257.192L257.847 33.3058H258.066C258.386 32.7523 258.785 32.2474 259.26 31.7909C259.746 31.3248 260.295 30.9558 260.906 30.6839C261.528 30.4023 262.198 30.2615 262.917 30.2615ZM274.089 30.2615C275.594 30.2615 276.89 30.5528 277.978 31.1355C279.066 31.7084 279.906 32.5435 280.498 33.6409C281.09 34.7382 281.387 36.0783 281.387 37.6612V39.817H270.884C270.933 41.0697 271.307 42.0554 272.006 42.774C272.715 43.4829 273.696 43.8373 274.948 43.8373C275.987 43.8373 276.939 43.7305 277.803 43.5168C278.668 43.3032 279.556 42.9827 280.469 42.5555V45.9931C279.663 46.3913 278.818 46.6826 277.934 46.8671C277.06 47.0516 275.997 47.1439 274.744 47.1439C273.113 47.1439 271.666 46.8428 270.404 46.2408C269.151 45.6387 268.165 44.721 267.447 43.4877C266.738 42.2544 266.383 40.7007 266.383 38.8265C266.383 36.9232 266.704 35.3403 267.345 34.0779C267.995 32.8057 268.898 31.8541 270.054 31.2229C271.21 30.5819 272.555 30.2615 274.089 30.2615ZM274.118 33.4224C273.254 33.4224 272.535 33.6991 271.962 34.2527C271.399 34.8062 271.074 35.6753 270.986 36.86H277.221C277.211 36.1997 277.09 35.6122 276.857 35.0975C276.633 34.5828 276.293 34.175 275.837 33.8739C275.39 33.5729 274.817 33.4224 274.118 33.4224Z" fill="#1C3312"/>
<path d="M89.9978 72.4058L91.7094 64.387H92.78L92.5906 65.9237H92.6052C92.7897 65.6713 93.0106 65.4163 93.268 65.159C93.5302 64.8968 93.8336 64.6783 94.1784 64.5035C94.5279 64.3239 94.9237 64.234 95.3655 64.234C95.7928 64.234 96.1594 64.3142 96.4653 64.4744C96.7712 64.6298 97.0066 64.858 97.1717 65.159C97.3368 65.4552 97.4194 65.8145 97.4194 66.2369C97.4194 66.4603 97.4024 66.686 97.3684 66.9143C97.3344 67.1425 97.298 67.3464 97.2591 67.526L96.1958 72.4058H94.9067L95.9846 67.3658C96.0283 67.1473 96.0623 66.9604 96.0865 66.805C96.1157 66.6496 96.1302 66.504 96.1302 66.368C96.1302 66.0281 96.038 65.7708 95.8535 65.596C95.669 65.4212 95.3971 65.3338 95.0378 65.3338C94.6833 65.3338 94.3094 65.4552 93.9162 65.698C93.5229 65.9407 93.1587 66.3243 92.8237 66.8487C92.4887 67.3682 92.2289 68.048 92.0444 68.888L91.2942 72.4058H89.9978ZM101.105 72.5514C100.673 72.5514 100.294 72.447 99.9685 72.2382C99.6432 72.0295 99.3907 71.7211 99.211 71.3133C99.0314 70.9054 98.9415 70.4077 98.9415 69.8202C98.9415 69.2327 99.0022 68.6671 99.1236 68.1233C99.2499 67.5794 99.4271 67.0745 99.6553 66.6084C99.8835 66.1422 100.158 65.7344 100.478 65.3848C100.804 65.0352 101.168 64.7633 101.571 64.5691C101.974 64.3749 102.408 64.2777 102.874 64.2777C103.234 64.2777 103.545 64.3457 103.807 64.4817C104.074 64.6176 104.295 64.7973 104.469 65.0206C104.649 65.2391 104.79 65.4722 104.892 65.7198H104.965L105.431 64.4234H106.356L104.666 72.4058H103.697L103.916 70.8617H103.858C103.639 71.1531 103.389 71.4274 103.108 71.6847C102.826 71.9421 102.518 72.1509 102.183 72.3111C101.848 72.4713 101.488 72.5514 101.105 72.5514ZM101.498 71.5463C101.872 71.5463 102.241 71.4104 102.605 71.1385C102.974 70.8617 103.304 70.4903 103.595 70.0242C103.892 69.5532 104.117 69.0239 104.273 68.4364C104.351 68.15 104.401 67.8878 104.426 67.6499C104.455 67.4071 104.469 67.1813 104.469 66.9725C104.469 66.4724 104.336 66.0694 104.069 65.7635C103.807 65.4528 103.447 65.2974 102.991 65.2974C102.666 65.2974 102.36 65.3799 102.073 65.545C101.787 65.7052 101.527 65.931 101.294 66.2224C101.066 66.5088 100.869 66.8438 100.704 67.2274C100.539 67.6062 100.41 68.0189 100.318 68.4656C100.231 68.9123 100.187 69.3711 100.187 69.8421C100.187 70.4005 100.301 70.8253 100.529 71.1166C100.757 71.4031 101.08 71.5463 101.498 71.5463ZM108.33 72.4058L107.368 64.4234H108.592L109.08 69.0191C109.109 69.2764 109.136 69.5678 109.16 69.8931C109.184 70.2184 109.204 70.5243 109.218 70.8107C109.238 71.0972 109.247 71.3133 109.247 71.459H109.291C109.398 71.221 109.522 70.9516 109.662 70.6505C109.808 70.3446 109.954 70.0436 110.099 69.7474C110.245 69.4464 110.374 69.189 110.485 68.9754L112.947 64.4234H114.243L109.895 72.4058H108.33ZM113.952 72.4058L115.649 64.4234H116.865L115.168 72.4058H113.952ZM116.669 63.025C116.475 63.025 116.312 62.9692 116.181 62.8575C116.055 62.741 115.991 62.5783 115.991 62.3696C115.991 62.2093 116.023 62.0588 116.086 61.918C116.154 61.7772 116.249 61.6655 116.37 61.583C116.496 61.4956 116.649 61.4519 116.829 61.4519C117.043 61.4519 117.203 61.5077 117.31 61.6194C117.417 61.7311 117.47 61.8864 117.47 62.0855C117.47 62.372 117.387 62.6002 117.222 62.7701C117.057 62.9401 116.873 63.025 116.669 63.025ZM119.611 75.9891C118.674 75.9891 117.941 75.8094 117.412 75.4501C116.882 75.0957 116.618 74.5956 116.618 73.9498C116.618 73.4303 116.795 72.9787 117.149 72.5951C117.499 72.2164 118.062 71.8984 118.839 71.641C118.655 71.5439 118.514 71.4225 118.417 71.2769C118.324 71.1264 118.278 70.954 118.278 70.7598C118.278 70.4296 118.4 70.1456 118.643 69.9076C118.885 69.6649 119.225 69.4415 119.662 69.2376C119.351 69.0774 119.101 68.8419 118.912 68.5311C118.723 68.2204 118.628 67.8635 118.628 67.4605C118.633 66.9798 118.715 66.5404 118.876 66.1422C119.036 65.7441 119.262 65.4042 119.553 65.1226C119.825 64.8604 120.143 64.6565 120.507 64.5108C120.876 64.3651 121.277 64.2923 121.709 64.2923C121.893 64.2923 122.078 64.3045 122.262 64.3287C122.447 64.353 122.629 64.3894 122.808 64.438H125.503L125.328 65.1736L123.748 65.3338C123.86 65.4843 123.942 65.6615 123.996 65.8655C124.054 66.0694 124.081 66.2952 124.076 66.5428C124.076 67.0186 123.996 67.4484 123.835 67.8319C123.675 68.2155 123.447 68.5408 123.151 68.8079C122.884 69.0458 122.566 69.2303 122.197 69.3614C121.833 69.4876 121.425 69.5532 120.973 69.558C120.842 69.558 120.725 69.5532 120.624 69.5435C120.522 69.5338 120.434 69.5192 120.361 69.4998C120.007 69.626 119.745 69.7741 119.575 69.9441C119.405 70.114 119.32 70.2936 119.32 70.483C119.32 70.619 119.361 70.7282 119.444 70.8107C119.521 70.8836 119.628 70.9394 119.764 70.9783C119.905 71.0122 120.077 71.0414 120.281 71.0657L121.141 71.1603C121.723 71.2283 122.199 71.3448 122.568 71.5099C122.937 71.6702 123.209 71.8887 123.384 72.1654C123.559 72.4422 123.646 72.7845 123.646 73.1923C123.646 73.707 123.527 74.1513 123.289 74.5252C123.051 74.9039 122.709 75.2122 122.262 75.4501C121.922 75.6249 121.529 75.7584 121.082 75.8507C120.641 75.943 120.15 75.9891 119.611 75.9891ZM119.662 75.1078C120.104 75.1078 120.497 75.069 120.842 74.9913C121.192 74.9136 121.488 74.8019 121.731 74.6563C121.993 74.496 122.192 74.3018 122.328 74.0736C122.469 73.8454 122.539 73.5832 122.539 73.287C122.539 73.1559 122.517 73.037 122.473 72.9301C122.435 72.8233 122.371 72.7286 122.284 72.6461C122.148 72.515 121.954 72.4082 121.701 72.3256C121.449 72.2431 121.128 72.1848 120.74 72.1509L119.575 72.0343C119.167 72.1217 118.825 72.2504 118.548 72.4203C118.276 72.5951 118.07 72.8015 117.929 73.0394C117.788 73.2773 117.718 73.5444 117.718 73.8405C117.718 74.2387 117.883 74.5494 118.213 74.7728C118.543 74.9961 119.026 75.1078 119.662 75.1078ZM121.024 68.7569C121.442 68.7569 121.794 68.6525 122.08 68.4437C122.371 68.2301 122.595 67.9485 122.75 67.5989C122.906 67.2444 122.983 66.8584 122.983 66.4408C122.983 66.2321 122.954 66.0476 122.896 65.8873C122.842 65.7222 122.76 65.5863 122.648 65.4795C122.541 65.3678 122.405 65.2828 122.24 65.2246C122.08 65.1663 121.896 65.1372 121.687 65.1372C121.381 65.1372 121.107 65.1979 120.864 65.3192C120.621 65.4358 120.415 65.5984 120.245 65.8072C120.08 66.016 119.951 66.2588 119.859 66.5355C119.771 66.8123 119.728 67.1085 119.728 67.4241C119.728 67.628 119.754 67.8101 119.808 67.9703C119.861 68.1305 119.939 68.2665 120.041 68.3782C120.264 68.6307 120.592 68.7569 121.024 68.7569ZM127.936 72.5514C127.504 72.5514 127.125 72.447 126.8 72.2382C126.474 72.0295 126.222 71.7211 126.042 71.3133C125.863 70.9054 125.773 70.4077 125.773 69.8202C125.773 69.2327 125.833 68.6671 125.955 68.1233C126.081 67.5794 126.258 67.0745 126.486 66.6084C126.715 66.1422 126.989 65.7344 127.309 65.3848C127.635 65.0352 127.999 64.7633 128.402 64.5691C128.805 64.3749 129.24 64.2777 129.706 64.2777C130.065 64.2777 130.376 64.3457 130.638 64.4817C130.905 64.6176 131.126 64.7973 131.301 65.0206C131.48 65.2391 131.621 65.4722 131.723 65.7198H131.796L132.262 64.4234H133.187L131.497 72.4058H130.529L130.747 70.8617H130.689C130.47 71.1531 130.22 71.4274 129.939 71.6847C129.657 71.9421 129.349 72.1509 129.014 72.3111C128.679 72.4713 128.319 72.5514 127.936 72.5514ZM128.329 71.5463C128.703 71.5463 129.072 71.4104 129.436 71.1385C129.805 70.8617 130.135 70.4903 130.427 70.0242C130.723 69.5532 130.949 69.0239 131.104 68.4364C131.182 68.15 131.233 67.8878 131.257 67.6499C131.286 67.4071 131.301 67.1813 131.301 66.9725C131.301 66.4724 131.167 66.0694 130.9 65.7635C130.638 65.4528 130.279 65.2974 129.822 65.2974C129.497 65.2974 129.191 65.3799 128.904 65.545C128.618 65.7052 128.358 65.931 128.125 66.2224C127.897 66.5088 127.7 66.8438 127.535 67.2274C127.37 67.6062 127.242 68.0189 127.149 68.4656C127.062 68.9123 127.018 69.3711 127.018 69.8421C127.018 70.4005 127.132 70.8253 127.36 71.1166C127.589 71.4031 127.912 71.5463 128.329 71.5463ZM136.18 72.5514C135.651 72.5514 135.209 72.4252 134.855 72.1727C134.505 71.9154 134.33 71.4759 134.33 70.8544C134.33 70.7039 134.34 70.5413 134.36 70.3665C134.379 70.1868 134.411 70.0023 134.454 69.813L135.394 65.3484H134.163L134.279 64.7876L135.605 64.2777L136.479 62.5881H137.2L136.799 64.4234H138.853L138.664 65.3484H136.617L135.671 69.8275C135.637 69.9635 135.605 70.1091 135.576 70.2645C135.552 70.4199 135.539 70.568 135.539 70.7088C135.539 70.9516 135.603 71.1555 135.729 71.3206C135.855 71.4808 136.066 71.5609 136.362 71.5609C136.547 71.5609 136.722 71.5439 136.887 71.5099C137.057 71.4759 137.236 71.4274 137.426 71.3643V72.2965C137.304 72.3548 137.12 72.4106 136.872 72.464C136.63 72.5223 136.399 72.5514 136.18 72.5514ZM138.831 72.4058L140.528 64.4234H141.745L140.048 72.4058H138.831ZM141.548 63.025C141.354 63.025 141.191 62.9692 141.06 62.8575C140.934 62.741 140.871 62.5783 140.871 62.3696C140.871 62.2093 140.902 62.0588 140.965 61.918C141.033 61.7772 141.128 61.6655 141.249 61.583C141.376 61.4956 141.529 61.4519 141.708 61.4519C141.922 61.4519 142.082 61.5077 142.189 61.6194C142.296 61.7311 142.349 61.8864 142.349 62.0855C142.349 62.372 142.267 62.6002 142.102 62.7701C141.937 62.9401 141.752 63.025 141.548 63.025ZM142.553 72.4058L144.265 64.387H145.335L145.146 65.9237H145.161C145.345 65.6713 145.566 65.4163 145.823 65.159C146.085 64.8968 146.389 64.6783 146.734 64.5035C147.083 64.3239 147.479 64.234 147.921 64.234C148.348 64.234 148.715 64.3142 149.021 64.4744C149.326 64.6298 149.562 64.858 149.727 65.159C149.892 65.4552 149.975 65.8145 149.975 66.2369C149.975 66.4603 149.958 66.686 149.924 66.9143C149.89 67.1425 149.853 67.3464 149.814 67.526L148.751 72.4058H147.462L148.54 67.3658C148.584 67.1473 148.618 66.9604 148.642 66.805C148.671 66.6496 148.686 66.504 148.686 66.368C148.686 66.0281 148.593 65.7708 148.409 65.596C148.224 65.4212 147.952 65.3338 147.593 65.3338C147.239 65.3338 146.865 65.4552 146.471 65.698C146.078 65.9407 145.714 66.3243 145.379 66.8487C145.044 67.3682 144.784 68.048 144.6 68.888L143.85 72.4058H142.553ZM153.085 75.9891C152.148 75.9891 151.414 75.8094 150.885 75.4501C150.356 75.0957 150.091 74.5956 150.091 73.9498C150.091 73.4303 150.268 72.9787 150.623 72.5951C150.972 72.2164 151.536 71.8984 152.313 71.641C152.128 71.5439 151.987 71.4225 151.89 71.2769C151.798 71.1264 151.752 70.954 151.752 70.7598C151.752 70.4296 151.873 70.1456 152.116 69.9076C152.359 69.6649 152.699 69.4415 153.136 69.2376C152.825 69.0774 152.575 68.8419 152.385 68.5311C152.196 68.2204 152.101 67.8635 152.101 67.4605C152.106 66.9798 152.189 66.5404 152.349 66.1422C152.509 65.7441 152.735 65.4042 153.026 65.1226C153.298 64.8604 153.616 64.6565 153.98 64.5108C154.349 64.3651 154.75 64.2923 155.182 64.2923C155.367 64.2923 155.551 64.3045 155.736 64.3287C155.92 64.353 156.102 64.3894 156.282 64.438H158.977L158.802 65.1736L157.221 65.3338C157.333 65.4843 157.416 65.6615 157.469 65.8655C157.527 66.0694 157.554 66.2952 157.549 66.5428C157.549 67.0186 157.469 67.4484 157.309 67.8319C157.149 68.2155 156.92 68.5408 156.624 68.8079C156.357 69.0458 156.039 69.2303 155.67 69.3614C155.306 69.4876 154.898 69.5532 154.447 69.558C154.315 69.558 154.199 69.5532 154.097 69.5435C153.995 69.5338 153.908 69.5192 153.835 69.4998C153.48 69.626 153.218 69.7741 153.048 69.9441C152.878 70.114 152.793 70.2936 152.793 70.483C152.793 70.619 152.835 70.7282 152.917 70.8107C152.995 70.8836 153.102 70.9394 153.238 70.9783C153.378 71.0122 153.551 71.0414 153.755 71.0657L154.614 71.1603C155.197 71.2283 155.673 71.3448 156.042 71.5099C156.411 71.6702 156.682 71.8887 156.857 72.1654C157.032 72.4422 157.119 72.7845 157.119 73.1923C157.119 73.707 157.001 74.1513 156.763 74.5252C156.525 74.9039 156.182 75.2122 155.736 75.4501C155.396 75.6249 155.003 75.7584 154.556 75.8507C154.114 75.943 153.624 75.9891 153.085 75.9891ZM153.136 75.1078C153.577 75.1078 153.971 75.069 154.315 74.9913C154.665 74.9136 154.961 74.8019 155.204 74.6563C155.466 74.496 155.665 74.3018 155.801 74.0736C155.942 73.8454 156.012 73.5832 156.012 73.287C156.012 73.1559 155.991 73.037 155.947 72.9301C155.908 72.8233 155.845 72.7286 155.758 72.6461C155.622 72.515 155.427 72.4082 155.175 72.3256C154.922 72.2431 154.602 72.1848 154.214 72.1509L153.048 72.0343C152.64 72.1217 152.298 72.2504 152.021 72.4203C151.749 72.5951 151.543 72.8015 151.402 73.0394C151.261 73.2773 151.191 73.5444 151.191 73.8405C151.191 74.2387 151.356 74.5494 151.686 74.7728C152.016 74.9961 152.5 75.1078 153.136 75.1078ZM154.498 68.7569C154.915 68.7569 155.267 68.6525 155.554 68.4437C155.845 68.2301 156.068 67.9485 156.224 67.5989C156.379 67.2444 156.457 66.8584 156.457 66.4408C156.457 66.2321 156.428 66.0476 156.369 65.8873C156.316 65.7222 156.233 65.5863 156.122 65.4795C156.015 65.3678 155.879 65.2828 155.714 65.2246C155.554 65.1663 155.369 65.1372 155.16 65.1372C154.854 65.1372 154.58 65.1979 154.337 65.3192C154.095 65.4358 153.888 65.5984 153.718 65.8072C153.553 66.016 153.424 66.2588 153.332 66.5355C153.245 66.8123 153.201 67.1085 153.201 67.4241C153.201 67.628 153.228 67.8101 153.281 67.9703C153.335 68.1305 153.412 68.2665 153.514 68.3782C153.738 68.6307 154.065 68.7569 154.498 68.7569ZM162.822 72.4058L165.226 61.0732H166.435L165.794 64.0156C165.755 64.2243 165.706 64.4404 165.648 64.6638C165.595 64.8823 165.539 65.1032 165.481 65.3265C165.422 65.545 165.364 65.7611 165.306 65.9747H165.379C165.568 65.7174 165.791 65.46 166.049 65.2027C166.311 64.9454 166.614 64.7293 166.959 64.5545C167.309 64.3797 167.702 64.2923 168.139 64.2923C168.556 64.2923 168.913 64.3676 169.21 64.5181C169.511 64.6686 169.741 64.8944 169.901 65.1954C170.067 65.4916 170.149 65.8655 170.149 66.317C170.149 66.5064 170.135 66.7006 170.105 66.8997C170.076 67.0939 170.04 67.2978 169.996 67.5115L168.947 72.4058H167.731L168.794 67.3804C168.843 67.1619 168.877 66.9749 168.896 66.8196C168.916 66.6642 168.925 66.5282 168.925 66.4117C168.925 66.0573 168.836 65.7829 168.656 65.5887C168.481 65.3945 168.2 65.2974 167.811 65.2974C167.447 65.2974 167.063 65.4212 166.66 65.6688C166.262 65.9116 165.893 66.2976 165.553 66.8269C165.218 67.3512 164.961 68.0383 164.781 68.888L164.038 72.4058H162.822ZM174.614 72.5514C174.016 72.5514 173.502 72.4325 173.07 72.1945C172.637 71.9518 172.305 71.607 172.072 71.1603C171.844 70.7088 171.73 70.1698 171.73 69.5435C171.73 68.8977 171.822 68.2641 172.006 67.6426C172.196 67.0162 172.465 66.4506 172.815 65.9456C173.164 65.4358 173.584 65.0303 174.075 64.7293C174.57 64.4283 175.123 64.2777 175.735 64.2777C176.468 64.2777 177.024 64.4428 177.403 64.773C177.782 65.0983 177.971 65.5474 177.971 66.1204C177.971 66.5234 177.877 66.8948 177.687 67.2347C177.503 67.5746 177.216 67.8708 176.828 68.1233C176.444 68.3709 175.956 68.5651 175.364 68.7059C174.776 68.8419 174.08 68.9098 173.274 68.9098H172.997C172.987 68.9972 172.977 69.0943 172.968 69.2012C172.963 69.308 172.96 69.4075 172.96 69.4998C172.96 70.1407 173.116 70.6432 173.426 71.0074C173.737 71.3667 174.203 71.5463 174.825 71.5463C175.208 71.5463 175.57 71.4929 175.91 71.3861C176.255 71.2744 176.614 71.1288 176.988 70.9491V71.9906C176.629 72.1557 176.267 72.2917 175.903 72.3985C175.539 72.5004 175.109 72.5514 174.614 72.5514ZM173.172 67.9193H173.346C173.968 67.9193 174.538 67.8659 175.058 67.7591C175.577 67.6474 175.995 67.4678 176.311 67.2201C176.626 66.9677 176.784 66.6326 176.784 66.2151C176.784 65.9432 176.692 65.7198 176.507 65.545C176.323 65.3702 176.041 65.2828 175.662 65.2828C175.327 65.2828 174.997 65.3872 174.672 65.596C174.347 65.7999 174.05 66.0985 173.783 66.4918C173.521 66.8851 173.317 67.361 173.172 67.9193ZM181.307 72.5514C180.875 72.5514 180.496 72.447 180.171 72.2382C179.845 72.0295 179.593 71.7211 179.413 71.3133C179.234 70.9054 179.144 70.4077 179.144 69.8202C179.144 69.2327 179.204 68.6671 179.326 68.1233C179.452 67.5794 179.629 67.0745 179.858 66.6084C180.086 66.1422 180.36 65.7344 180.681 65.3848C181.006 65.0352 181.37 64.7633 181.773 64.5691C182.176 64.3749 182.611 64.2777 183.077 64.2777C183.436 64.2777 183.747 64.3457 184.009 64.4817C184.276 64.6176 184.497 64.7973 184.672 65.0206C184.851 65.2391 184.992 65.4722 185.094 65.7198H185.167L185.633 64.4234H186.558L184.868 72.4058H183.9L184.118 70.8617H184.06C183.841 71.1531 183.591 71.4274 183.31 71.6847C183.028 71.9421 182.72 72.1509 182.385 72.3111C182.05 72.4713 181.69 72.5514 181.307 72.5514ZM181.7 71.5463C182.074 71.5463 182.443 71.4104 182.807 71.1385C183.176 70.8617 183.506 70.4903 183.798 70.0242C184.094 69.5532 184.32 69.0239 184.475 68.4364C184.553 68.15 184.604 67.8878 184.628 67.6499C184.657 67.4071 184.672 67.1813 184.672 66.9725C184.672 66.4724 184.538 66.0694 184.271 65.7635C184.009 65.4528 183.65 65.2974 183.193 65.2974C182.868 65.2974 182.562 65.3799 182.276 65.545C181.989 65.7052 181.729 65.931 181.496 66.2224C181.268 66.5088 181.071 66.8438 180.906 67.2274C180.741 67.6062 180.613 68.0189 180.52 68.4656C180.433 68.9123 180.389 69.3711 180.389 69.8421C180.389 70.4005 180.503 70.8253 180.732 71.1166C180.96 71.4031 181.283 71.5463 181.7 71.5463ZM187.265 72.4058L189.683 61.0732H190.892L188.481 72.4058H187.265ZM193.324 72.5514C192.795 72.5514 192.353 72.4252 191.999 72.1727C191.649 71.9154 191.474 71.4759 191.474 70.8544C191.474 70.7039 191.484 70.5413 191.503 70.3665C191.523 70.1868 191.554 70.0023 191.598 69.813L192.538 65.3484H191.307L191.423 64.7876L192.749 64.2777L193.623 62.5881H194.344L193.943 64.4234H195.997L195.808 65.3484H193.761L192.814 69.8275C192.78 69.9635 192.749 70.1091 192.72 70.2645C192.695 70.4199 192.683 70.568 192.683 70.7088C192.683 70.9516 192.746 71.1555 192.873 71.3206C192.999 71.4808 193.21 71.5609 193.506 71.5609C193.691 71.5609 193.865 71.5439 194.031 71.5099C194.201 71.4759 194.38 71.4274 194.57 71.3643V72.2965C194.448 72.3548 194.264 72.4106 194.016 72.464C193.773 72.5223 193.543 72.5514 193.324 72.5514ZM195.975 72.4058L198.379 61.0732H199.588L198.947 64.0156C198.908 64.2243 198.859 64.4404 198.801 64.6638C198.748 64.8823 198.692 65.1032 198.634 65.3265C198.575 65.545 198.517 65.7611 198.459 65.9747H198.532C198.721 65.7174 198.944 65.46 199.202 65.2027C199.464 64.9454 199.767 64.7293 200.112 64.5545C200.462 64.3797 200.855 64.2923 201.292 64.2923C201.709 64.2923 202.066 64.3676 202.363 64.5181C202.664 64.6686 202.894 64.8944 203.054 65.1954C203.22 65.4916 203.302 65.8655 203.302 66.317C203.302 66.5064 203.287 66.7006 203.258 66.8997C203.229 67.0939 203.193 67.2978 203.149 67.5115L202.1 72.4058H200.884L201.947 67.3804C201.996 67.1619 202.03 66.9749 202.049 66.8196C202.069 66.6642 202.078 66.5282 202.078 66.4117C202.078 66.0573 201.989 65.7829 201.809 65.5887C201.634 65.3945 201.353 65.2974 200.964 65.2974C200.6 65.2974 200.216 65.4212 199.813 65.6688C199.415 65.9116 199.046 66.2976 198.706 66.8269C198.371 67.3512 198.114 68.0383 197.934 68.888L197.191 72.4058H195.975ZM210.716 72.5514C210.187 72.5514 209.745 72.4252 209.391 72.1727C209.041 71.9154 208.866 71.4759 208.866 70.8544C208.866 70.7039 208.876 70.5413 208.896 70.3665C208.915 70.1868 208.947 70.0023 208.99 69.813L209.93 65.3484H208.699L208.815 64.7876L210.141 64.2777L211.015 62.5881H211.736L211.335 64.4234H213.389L213.2 65.3484H211.153L210.206 69.8275C210.173 69.9635 210.141 70.1091 210.112 70.2645C210.088 70.4199 210.075 70.568 210.075 70.7088C210.075 70.9516 210.139 71.1555 210.265 71.3206C210.391 71.4808 210.602 71.5609 210.898 71.5609C211.083 71.5609 211.258 71.5439 211.423 71.5099C211.593 71.4759 211.772 71.4274 211.962 71.3643V72.2965C211.84 72.3548 211.656 72.4106 211.408 72.464C211.165 72.5223 210.935 72.5514 210.716 72.5514ZM216.623 72.5223C216.011 72.5223 215.484 72.3985 215.042 72.1509C214.601 71.8984 214.261 71.5439 214.023 71.0875C213.79 70.6262 213.673 70.0824 213.673 69.4561C213.673 68.9511 213.729 68.4534 213.841 67.963C213.952 67.4678 214.118 67.0017 214.336 66.5647C214.555 66.1228 214.824 65.7344 215.144 65.3994C215.47 65.0595 215.844 64.7949 216.266 64.6055C216.688 64.4113 217.159 64.3142 217.679 64.3142C218.301 64.3142 218.83 64.4404 219.267 64.6929C219.709 64.9405 220.046 65.295 220.279 65.7562C220.517 66.2175 220.636 66.7637 220.636 67.3949C220.636 67.8902 220.58 68.383 220.468 68.8734C220.362 69.3638 220.199 69.8299 219.98 70.2718C219.767 70.7088 219.497 71.0972 219.172 71.4371C218.852 71.7721 218.478 72.0367 218.05 72.231C217.628 72.4252 217.152 72.5223 216.623 72.5223ZM216.696 71.5172C216.997 71.5172 217.283 71.4541 217.555 71.3279C217.827 71.2016 218.075 71.0195 218.298 70.7816C218.521 70.5388 218.713 70.2451 218.873 69.9004C219.039 69.5508 219.165 69.155 219.252 68.7132C219.344 68.2714 219.391 67.7858 219.391 67.2566C219.391 66.941 219.335 66.6351 219.223 66.3389C219.111 66.0427 218.932 65.7999 218.684 65.6106C218.436 65.4163 218.106 65.3192 217.694 65.3192C217.354 65.3192 217.038 65.3896 216.747 65.5305C216.46 65.6713 216.203 65.8703 215.975 66.1277C215.747 66.385 215.552 66.6885 215.392 67.0381C215.237 67.3877 215.115 67.7712 215.028 68.1888C214.945 68.6064 214.904 69.0458 214.904 69.5071C214.904 70.1431 215.059 70.6384 215.37 70.9928C215.681 71.3424 216.123 71.5172 216.696 71.5172ZM223.658 75.9891C222.721 75.9891 221.988 75.8094 221.459 75.4501C220.93 75.0957 220.665 74.5956 220.665 73.9498C220.665 73.4303 220.842 72.9787 221.197 72.5951C221.546 72.2164 222.11 71.8984 222.886 71.641C222.702 71.5439 222.561 71.4225 222.464 71.2769C222.372 71.1264 222.326 70.954 222.326 70.7598C222.326 70.4296 222.447 70.1456 222.69 69.9076C222.933 69.6649 223.272 69.4415 223.709 69.2376C223.399 69.0774 223.149 68.8419 222.959 68.5311C222.77 68.2204 222.675 67.8635 222.675 67.4605C222.68 66.9798 222.763 66.5404 222.923 66.1422C223.083 65.7441 223.309 65.4042 223.6 65.1226C223.872 64.8604 224.19 64.6565 224.554 64.5108C224.923 64.3651 225.324 64.2923 225.756 64.2923C225.941 64.2923 226.125 64.3045 226.31 64.3287C226.494 64.353 226.676 64.3894 226.856 64.438H229.551L229.376 65.1736L227.795 65.3338C227.907 65.4843 227.99 65.6615 228.043 65.8655C228.101 66.0694 228.128 66.2952 228.123 66.5428C228.123 67.0186 228.043 67.4484 227.883 67.8319C227.723 68.2155 227.494 68.5408 227.198 68.8079C226.931 69.0458 226.613 69.2303 226.244 69.3614C225.88 69.4876 225.472 69.5532 225.02 69.558C224.889 69.558 224.773 69.5532 224.671 69.5435C224.569 69.5338 224.481 69.5192 224.409 69.4998C224.054 69.626 223.792 69.7741 223.622 69.9441C223.452 70.114 223.367 70.2936 223.367 70.483C223.367 70.619 223.408 70.7282 223.491 70.8107C223.569 70.8836 223.675 70.9394 223.811 70.9783C223.952 71.0122 224.125 71.0414 224.329 71.0657L225.188 71.1603C225.771 71.2283 226.246 71.3448 226.615 71.5099C226.984 71.6702 227.256 71.8887 227.431 72.1654C227.606 72.4422 227.693 72.7845 227.693 73.1923C227.693 73.707 227.574 74.1513 227.336 74.5252C227.099 74.9039 226.756 75.2122 226.31 75.4501C225.97 75.6249 225.576 75.7584 225.13 75.8507C224.688 75.943 224.197 75.9891 223.658 75.9891ZM223.709 75.1078C224.151 75.1078 224.545 75.069 224.889 74.9913C225.239 74.9136 225.535 74.8019 225.778 74.6563C226.04 74.496 226.239 74.3018 226.375 74.0736C226.516 73.8454 226.586 73.5832 226.586 73.287C226.586 73.1559 226.564 73.037 226.521 72.9301C226.482 72.8233 226.419 72.7286 226.331 72.6461C226.195 72.515 226.001 72.4082 225.749 72.3256C225.496 72.2431 225.176 72.1848 224.787 72.1509L223.622 72.0343C223.214 72.1217 222.872 72.2504 222.595 72.4203C222.323 72.5951 222.117 72.8015 221.976 73.0394C221.835 73.2773 221.765 73.5444 221.765 73.8405C221.765 74.2387 221.93 74.5494 222.26 74.7728C222.59 74.9961 223.073 75.1078 223.709 75.1078ZM225.071 68.7569C225.489 68.7569 225.841 68.6525 226.127 68.4437C226.419 68.2301 226.642 67.9485 226.798 67.5989C226.953 67.2444 227.031 66.8584 227.031 66.4408C227.031 66.2321 227.001 66.0476 226.943 65.8873C226.89 65.7222 226.807 65.5863 226.696 65.4795C226.589 65.3678 226.453 65.2828 226.288 65.2246C226.127 65.1663 225.943 65.1372 225.734 65.1372C225.428 65.1372 225.154 65.1979 224.911 65.3192C224.668 65.4358 224.462 65.5984 224.292 65.8072C224.127 66.016 223.998 66.2588 223.906 66.5355C223.819 66.8123 223.775 67.1085 223.775 67.4241C223.775 67.628 223.802 67.8101 223.855 67.9703C223.909 68.1305 223.986 68.2665 224.088 68.3782C224.312 68.6307 224.639 68.7569 225.071 68.7569ZM232.719 72.5514C232.122 72.5514 231.607 72.4325 231.175 72.1945C230.743 71.9518 230.41 71.607 230.177 71.1603C229.949 70.7088 229.835 70.1698 229.835 69.5435C229.835 68.8977 229.927 68.2641 230.111 67.6426C230.301 67.0162 230.57 66.4506 230.92 65.9456C231.269 65.4358 231.689 65.0303 232.18 64.7293C232.675 64.4283 233.229 64.2777 233.84 64.2777C234.574 64.2777 235.129 64.4428 235.508 64.773C235.887 65.0983 236.076 65.5474 236.076 66.1204C236.076 66.5234 235.982 66.8948 235.792 67.2347C235.608 67.5746 235.321 67.8708 234.933 68.1233C234.549 68.3709 234.061 68.5651 233.469 68.7059C232.881 68.8419 232.185 68.9098 231.379 68.9098H231.102C231.092 68.9972 231.082 69.0943 231.073 69.2012C231.068 69.308 231.065 69.4075 231.065 69.4998C231.065 70.1407 231.221 70.6432 231.532 71.0074C231.842 71.3667 232.308 71.5463 232.93 71.5463C233.314 71.5463 233.675 71.4929 234.015 71.3861C234.36 71.2744 234.719 71.1288 235.093 70.9491V71.9906C234.734 72.1557 234.372 72.2917 234.008 72.3985C233.644 72.5004 233.214 72.5514 232.719 72.5514ZM231.277 67.9193H231.451C232.073 67.9193 232.643 67.8659 233.163 67.7591C233.683 67.6474 234.1 67.4678 234.416 67.2201C234.731 66.9677 234.889 66.6326 234.889 66.2151C234.889 65.9432 234.797 65.7198 234.612 65.545C234.428 65.3702 234.146 65.2828 233.768 65.2828C233.432 65.2828 233.102 65.3872 232.777 65.596C232.452 65.7999 232.156 66.0985 231.888 66.4918C231.626 66.8851 231.422 67.361 231.277 67.9193ZM239.223 72.5514C238.693 72.5514 238.252 72.4252 237.897 72.1727C237.547 71.9154 237.373 71.4759 237.373 70.8544C237.373 70.7039 237.382 70.5413 237.402 70.3665C237.421 70.1868 237.453 70.0023 237.497 69.813L238.436 65.3484H237.205L237.322 64.7876L238.647 64.2777L239.521 62.5881H240.242L239.842 64.4234H241.896L241.706 65.3484H239.66L238.713 69.8275C238.679 69.9635 238.647 70.1091 238.618 70.2645C238.594 70.4199 238.582 70.568 238.582 70.7088C238.582 70.9516 238.645 71.1555 238.771 71.3206C238.897 71.4808 239.109 71.5609 239.405 71.5609C239.589 71.5609 239.764 71.5439 239.929 71.5099C240.099 71.4759 240.279 71.4274 240.468 71.3643V72.2965C240.347 72.3548 240.162 72.4106 239.915 72.464C239.672 72.5223 239.441 72.5514 239.223 72.5514ZM241.874 72.4058L244.277 61.0732H245.486L244.845 64.0156C244.806 64.2243 244.758 64.4404 244.7 64.6638C244.646 64.8823 244.59 65.1032 244.532 65.3265C244.474 65.545 244.416 65.7611 244.357 65.9747H244.43C244.619 65.7174 244.843 65.46 245.1 65.2027C245.362 64.9454 245.666 64.7293 246.011 64.5545C246.36 64.3797 246.753 64.2923 247.19 64.2923C247.608 64.2923 247.965 64.3676 248.261 64.5181C248.562 64.6686 248.793 64.8944 248.953 65.1954C249.118 65.4916 249.201 65.8655 249.201 66.317C249.201 66.5064 249.186 66.7006 249.157 66.8997C249.128 67.0939 249.091 67.2978 249.048 67.5115L247.999 72.4058H246.783L247.846 67.3804C247.894 67.1619 247.928 66.9749 247.948 66.8196C247.967 66.6642 247.977 66.5282 247.977 66.4117C247.977 66.0573 247.887 65.7829 247.708 65.5887C247.533 65.3945 247.251 65.2974 246.863 65.2974C246.499 65.2974 246.115 65.4212 245.712 65.6688C245.314 65.9116 244.945 66.2976 244.605 66.8269C244.27 67.3512 244.013 68.0383 243.833 68.888L243.09 72.4058H241.874ZM253.665 72.5514C253.068 72.5514 252.553 72.4325 252.121 72.1945C251.689 71.9518 251.356 71.607 251.123 71.1603C250.895 70.7088 250.781 70.1698 250.781 69.5435C250.781 68.8977 250.873 68.2641 251.058 67.6426C251.247 67.0162 251.517 66.4506 251.866 65.9456C252.216 65.4358 252.636 65.0303 253.126 64.7293C253.621 64.4283 254.175 64.2777 254.787 64.2777C255.52 64.2777 256.076 64.4428 256.455 64.773C256.833 65.0983 257.023 65.5474 257.023 66.1204C257.023 66.5234 256.928 66.8948 256.739 67.2347C256.554 67.5746 256.268 67.8708 255.879 68.1233C255.496 68.3709 255.008 68.5651 254.415 68.7059C253.828 68.8419 253.131 68.9098 252.325 68.9098H252.048C252.039 68.9972 252.029 69.0943 252.019 69.2012C252.014 69.308 252.012 69.4075 252.012 69.4998C252.012 70.1407 252.167 70.6432 252.478 71.0074C252.789 71.3667 253.255 71.5463 253.876 71.5463C254.26 71.5463 254.622 71.4929 254.962 71.3861C255.306 71.2744 255.666 71.1288 256.039 70.9491V71.9906C255.68 72.1557 255.318 72.2917 254.954 72.3985C254.59 72.5004 254.16 72.5514 253.665 72.5514ZM252.223 67.9193H252.398C253.019 67.9193 253.59 67.8659 254.109 67.7591C254.629 67.6474 255.047 67.4678 255.362 67.2201C255.678 66.9677 255.836 66.6326 255.836 66.2151C255.836 65.9432 255.743 65.7198 255.559 65.545C255.374 65.3702 255.093 65.2828 254.714 65.2828C254.379 65.2828 254.049 65.3872 253.723 65.596C253.398 65.7999 253.102 66.0985 252.835 66.4918C252.573 66.8851 252.369 67.361 252.223 67.9193ZM257.897 72.4058L259.594 64.4234H260.584L260.395 65.9674H260.468C260.672 65.6907 260.89 65.4236 261.123 65.1663C261.356 64.9041 261.621 64.6905 261.917 64.5254C262.218 64.3603 262.563 64.2777 262.951 64.2777C263.097 64.2777 263.245 64.2875 263.395 64.3069C263.546 64.3214 263.687 64.3482 263.818 64.387L263.556 65.4722C263.425 65.4431 263.296 65.4212 263.17 65.4066C263.048 65.3921 262.922 65.3848 262.791 65.3848C262.422 65.3848 262.08 65.4819 261.764 65.6761C261.448 65.8655 261.164 66.1204 260.912 66.4408C260.664 66.7613 260.453 67.1182 260.278 67.5115C260.108 67.9048 259.98 68.3053 259.892 68.7132L259.113 72.4058H257.897Z" fill="#1E1E1E"/>
</svg>
