<svg width="152" height="122" viewBox="0 0 152 122" fill="none" xmlns="http://www.w3.org/2000/svg">
<path d="M151.765 5.00905C151.693 3.7654 151.167 2.59171 150.289 1.71082C149.411 0.829929 148.241 0.303164 147.002 0.230537C114.215 -1.67578 87.8892 8.32605 76.5761 27.0588C69.1015 39.4436 69.1142 54.4845 76.4747 68.8327C72.2845 73.8354 69.2225 79.6882 67.4989 85.9896L57.1929 75.6128C62.1464 65.2361 61.9564 54.4209 56.5595 45.4358C48.1981 31.5895 28.8973 24.1676 4.93443 25.5783C3.6947 25.6509 2.52471 26.1777 1.6466 27.0585C0.768486 27.9394 0.243383 29.1131 0.170985 30.3568C-1.24158 54.3955 6.16329 73.7574 19.9659 82.1452C24.5204 84.9374 29.7546 86.415 35.0923 86.4153C40.2731 86.3509 45.3733 85.1196 50.0161 82.8124L65.852 98.6984V116.916C65.852 118.265 66.3859 119.558 67.3362 120.511C68.2866 121.464 69.5755 122 70.9195 122C72.2635 122 73.5524 121.464 74.5027 120.511C75.4531 119.558 75.987 118.265 75.987 116.916V98.1773C75.9639 90.09 78.7074 82.2395 83.7592 75.9369C90.2769 79.3541 97.5054 81.1828 104.859 81.2746C111.969 81.2976 118.946 79.3493 125.021 75.6446C143.695 64.3084 153.691 37.8995 151.765 5.00905ZM25.1917 73.4524C15.4748 67.5491 9.97658 53.5758 10.1096 35.5801C28.0485 35.4276 41.9778 40.9623 47.8624 50.7099C50.9346 55.7935 51.435 61.7221 49.4207 67.8287L33.9585 52.3176C33.0004 51.4045 31.7247 50.903 30.4033 50.9199C29.0819 50.9369 27.8193 51.471 26.8849 52.4084C25.9504 53.3459 25.418 54.6124 25.4011 55.938C25.3841 57.2636 25.8841 58.5433 26.7943 59.5044L42.2565 75.0155C36.1692 77.0362 30.2655 76.5342 25.1917 73.4524ZM119.77 66.9582C111.282 72.1116 101.305 72.5055 91.1704 68.229L125.18 34.1059C126.09 33.1448 126.59 31.865 126.573 30.5394C126.556 29.2138 126.024 27.9473 125.089 27.0099C124.155 26.0725 122.892 25.5384 121.571 25.5214C120.249 25.5044 118.974 26.0059 118.015 26.919L83.9999 60.9977C79.7179 50.8307 80.1043 40.8161 85.2668 32.3076C94.0969 17.6924 115.038 9.5461 141.852 10.1752C142.46 37.067 134.352 58.1001 119.77 66.9582Z" fill="#1C3312"/>
</svg>
