<svg width="265" height="77" viewBox="0 0 265 77" fill="none" xmlns="http://www.w3.org/2000/svg">
<path d="M14.7947 17.6593C13.7236 17.6593 12.7728 17.8699 11.9424 18.2911C11.124 18.7003 10.432 19.2961 9.86636 20.0783C9.31275 20.8606 8.89152 21.8054 8.60268 22.9126C8.31385 24.0198 8.16943 25.2654 8.16943 26.6494C8.16943 28.5148 8.39809 30.1095 8.85542 31.4333C9.32478 32.7451 10.0469 33.7501 11.0217 34.4481C11.9965 35.1341 13.2542 35.4771 14.7947 35.4771C15.8658 35.4771 16.9369 35.3567 18.008 35.116C19.0912 34.8753 20.2646 34.5323 21.5282 34.087V38.7807C20.3608 39.2621 19.2115 39.6051 18.0802 39.8097C16.9489 40.0263 15.6792 40.1346 14.2712 40.1346C11.5513 40.1346 9.31275 39.575 7.55564 38.4557C5.81057 37.3244 4.51681 35.7479 3.67436 33.726C2.83192 31.6921 2.41069 29.3212 2.41069 26.6133C2.41069 24.6155 2.68148 22.7862 3.22305 21.1254C3.76463 19.4645 4.55894 18.0264 5.60598 16.8108C6.65302 15.5953 7.94678 14.6566 9.48725 13.9947C11.0277 13.3327 12.7969 13.0018 14.7947 13.0018C16.1065 13.0018 17.4183 13.1703 18.7301 13.5072C20.054 13.8322 21.3176 14.2835 22.5211 14.8612L20.7159 19.4104C19.729 18.941 18.7361 18.5318 17.7372 18.1828C16.7383 17.8338 15.7575 17.6593 14.7947 17.6593ZM45.0686 29.6461C45.0686 31.331 44.84 32.8234 44.3826 34.1231C43.9374 35.4229 43.2814 36.5241 42.4149 37.4267C41.5604 38.3173 40.5254 38.9913 39.3099 39.4486C38.1064 39.9059 36.7465 40.1346 35.2301 40.1346C33.8099 40.1346 32.5041 39.9059 31.3127 39.4486C30.1332 38.9913 29.1043 38.3173 28.2257 37.4267C27.3592 36.5241 26.6852 35.4229 26.2038 34.1231C25.7345 32.8234 25.4998 31.331 25.4998 29.6461C25.4998 27.4076 25.8969 25.5121 26.6912 23.9596C27.4856 22.4071 28.6168 21.2277 30.0851 20.4213C31.5534 19.615 33.3045 19.2118 35.3384 19.2118C37.2279 19.2118 38.9007 19.615 40.3569 20.4213C41.8252 21.2277 42.9746 22.4071 43.805 23.9596C44.6474 25.5121 45.0686 27.4076 45.0686 29.6461ZM31.1141 29.6461C31.1141 30.97 31.2585 32.0832 31.5474 32.9858C31.8362 33.8885 32.2875 34.5684 32.9013 35.0258C33.5151 35.4831 34.3154 35.7118 35.3023 35.7118C36.2771 35.7118 37.0654 35.4831 37.6671 35.0258C38.2809 34.5684 38.7262 33.8885 39.003 32.9858C39.2919 32.0832 39.4363 30.97 39.4363 29.6461C39.4363 28.3103 39.2919 27.203 39.003 26.3245C38.7262 25.4339 38.2809 24.766 37.6671 24.3207C37.0534 23.8754 36.253 23.6527 35.2662 23.6527C33.8099 23.6527 32.7508 24.1522 32.0889 25.1511C31.439 26.15 31.1141 27.6483 31.1141 29.6461ZM73.3207 19.2118C75.6074 19.2118 77.3344 19.8015 78.5018 20.981C79.6812 22.1483 80.2709 24.0258 80.2709 26.6133V39.7736H74.7469V27.9853C74.7469 26.5411 74.5002 25.4519 74.0067 24.7178C73.5133 23.9837 72.7491 23.6166 71.7141 23.6166C70.2578 23.6166 69.2228 24.1401 68.609 25.1872C67.9953 26.2222 67.6884 27.7085 67.6884 29.6461V39.7736H62.1824V27.9853C62.1824 27.0225 62.0741 26.2162 61.8574 25.5663C61.6408 24.9164 61.3098 24.429 60.8645 24.104C60.4192 23.7791 59.8476 23.6166 59.1496 23.6166C58.1266 23.6166 57.3202 23.8754 56.7305 24.3929C56.1528 24.8983 55.7376 25.6505 55.4849 26.6494C55.2442 27.6363 55.1239 28.8458 55.1239 30.278V39.7736H49.6179V19.5909H53.8241L54.5642 22.1724H54.8711C55.2803 21.4744 55.7918 20.9087 56.4056 20.4755C57.0314 20.0422 57.7174 19.7233 58.4636 19.5187C59.2097 19.3141 59.9679 19.2118 60.7382 19.2118C62.2185 19.2118 63.4701 19.4525 64.4931 19.9339C65.5281 20.4153 66.3224 21.1615 66.876 22.1724H67.3634C67.9652 21.1374 68.8136 20.3852 69.9088 19.9159C71.016 19.4465 72.1533 19.2118 73.3207 19.2118ZM109.642 19.2118C111.929 19.2118 113.656 19.8015 114.823 20.981C116.003 22.1483 116.592 24.0258 116.592 26.6133V39.7736H111.068V27.9853C111.068 26.5411 110.822 25.4519 110.328 24.7178C109.835 23.9837 109.071 23.6166 108.036 23.6166C106.579 23.6166 105.544 24.1401 104.931 25.1872C104.317 26.2222 104.01 27.7085 104.01 29.6461V39.7736H98.5039V27.9853C98.5039 27.0225 98.3956 26.2162 98.179 25.5663C97.9623 24.9164 97.6314 24.429 97.1861 24.104C96.7408 23.7791 96.1691 23.6166 95.4711 23.6166C94.4481 23.6166 93.6418 23.8754 93.0521 24.3929C92.4744 24.8983 92.0592 25.6505 91.8064 26.6494C91.5657 27.6363 91.4454 28.8458 91.4454 30.278V39.7736H85.9394V19.5909H90.1456L90.8858 22.1724H91.1927C91.6018 21.4744 92.1133 20.9087 92.7271 20.4755C93.3529 20.0422 94.0389 19.7233 94.7851 19.5187C95.5313 19.3141 96.2895 19.2118 97.0597 19.2118C98.54 19.2118 99.7916 19.4525 100.815 19.9339C101.85 20.4153 102.644 21.1615 103.198 22.1724H103.685C104.287 21.1374 105.135 20.3852 106.23 19.9159C107.338 19.4465 108.475 19.2118 109.642 19.2118ZM140.783 19.5909V39.7736H136.558L135.818 37.1921H135.529C135.096 37.8781 134.555 38.4377 133.905 38.8709C133.255 39.3042 132.539 39.6231 131.757 39.8277C130.974 40.0323 130.162 40.1346 129.319 40.1346C127.875 40.1346 126.618 39.8819 125.546 39.3764C124.475 38.8589 123.639 38.0586 123.037 36.9754C122.447 35.8923 122.153 34.4842 122.153 32.7512V19.5909H127.659V31.3792C127.659 32.8234 127.917 33.9125 128.435 34.6467C128.952 35.3808 129.777 35.7479 130.908 35.7479C132.027 35.7479 132.906 35.4951 133.544 34.9897C134.182 34.4722 134.627 33.72 134.88 32.7331C135.144 31.7342 135.277 30.5187 135.277 29.0865V19.5909H140.783ZM158.023 19.2118C160.177 19.2118 161.91 19.8015 163.222 20.981C164.534 22.1483 165.19 24.0258 165.19 26.6133V39.7736H159.684V27.9853C159.684 26.5411 159.419 25.4519 158.889 24.7178C158.372 23.9837 157.553 23.6166 156.434 23.6166C154.749 23.6166 153.6 24.1883 152.986 25.3316C152.372 26.4749 152.066 28.1237 152.066 30.278V39.7736H146.56V19.5909H150.766L151.506 22.1724H151.813C152.246 21.4744 152.782 20.9087 153.419 20.4755C154.069 20.0422 154.785 19.7233 155.568 19.5187C156.362 19.3141 157.18 19.2118 158.023 19.2118ZM176.364 19.5909V39.7736H170.858V19.5909H176.364ZM173.62 11.6839C174.439 11.6839 175.143 11.8765 175.732 12.2616C176.322 12.6347 176.617 13.3388 176.617 14.3738C176.617 15.3967 176.322 16.1068 175.732 16.5039C175.143 16.8891 174.439 17.0816 173.62 17.0816C172.79 17.0816 172.08 16.8891 171.49 16.5039C170.912 16.1068 170.623 15.3967 170.623 14.3738C170.623 13.3388 170.912 12.6347 171.49 12.2616C172.08 11.8765 172.79 11.6839 173.62 11.6839ZM193.803 17.6593C192.732 17.6593 191.781 17.8699 190.951 18.2911C190.132 18.7003 189.44 19.2961 188.874 20.0783C188.321 20.8606 187.9 21.8054 187.611 22.9126C187.322 24.0198 187.178 25.2654 187.178 26.6494C187.178 28.5148 187.406 30.1095 187.864 31.4333C188.333 32.7451 189.055 33.7501 190.03 34.4481C191.005 35.1341 192.262 35.4771 193.803 35.4771C194.874 35.4771 195.945 35.3567 197.016 35.116C198.099 34.8753 199.273 34.5323 200.536 34.087V38.7807C199.369 39.2621 198.22 39.6051 197.088 39.8097C195.957 40.0263 194.687 40.1346 193.279 40.1346C190.559 40.1346 188.321 39.575 186.564 38.4557C184.819 37.3244 183.525 35.7479 182.682 33.726C181.84 31.6921 181.419 29.3212 181.419 26.6133C181.419 24.6155 181.69 22.7862 182.231 21.1254C182.773 19.4645 183.567 18.0264 184.614 16.8108C185.661 15.5953 186.955 14.6566 188.495 13.9947C190.036 13.3327 191.805 13.0018 193.803 13.0018C195.115 13.0018 196.426 13.1703 197.738 13.5072C199.062 13.8322 200.326 14.2835 201.529 14.8612L199.724 19.4104C198.737 18.941 197.744 18.5318 196.745 18.1828C195.746 17.8338 194.766 17.6593 193.803 17.6593ZM214.003 19.1757C216.711 19.1757 218.787 19.7654 220.232 20.9449C221.676 22.1243 222.398 23.9175 222.398 26.3245V39.7736H218.553L217.488 37.0296H217.343C216.766 37.7517 216.176 38.3414 215.574 38.7987C214.972 39.2561 214.28 39.593 213.498 39.8097C212.716 40.0263 211.765 40.1346 210.646 40.1346C209.454 40.1346 208.383 39.9059 207.432 39.4486C206.494 38.9913 205.754 38.2933 205.212 37.3545C204.67 36.4038 204.4 35.2003 204.4 33.744C204.4 31.6018 205.152 30.0252 206.656 29.0143C208.161 27.9913 210.417 27.4257 213.426 27.3174L216.928 27.2091V26.3245C216.928 25.2654 216.651 24.4891 216.098 23.9957C215.544 23.5023 214.774 23.2556 213.787 23.2556C212.812 23.2556 211.855 23.394 210.917 23.6708C209.978 23.9476 209.039 24.2966 208.1 24.7178L206.277 20.999C207.348 20.4334 208.546 19.9881 209.869 19.6631C211.205 19.3382 212.583 19.1757 214.003 19.1757ZM216.928 30.4224L214.798 30.4946C213.017 30.5427 211.777 30.8617 211.079 31.4514C210.393 32.0411 210.05 32.8173 210.05 33.7801C210.05 34.6226 210.297 35.2243 210.79 35.5854C211.284 35.9344 211.927 36.1089 212.722 36.1089C213.901 36.1089 214.894 35.7599 215.7 35.0619C216.519 34.3638 216.928 33.371 216.928 32.0832V30.4224ZM239.349 19.2118C239.626 19.2118 239.945 19.2299 240.306 19.266C240.679 19.29 240.98 19.3261 241.209 19.3743L240.793 24.5373C240.613 24.4771 240.354 24.435 240.017 24.4109C239.692 24.3748 239.409 24.3568 239.169 24.3568C238.459 24.3568 237.767 24.447 237.093 24.6276C236.431 24.8081 235.835 25.1029 235.305 25.5121C234.776 25.9093 234.355 26.4388 234.042 27.1007C233.741 27.7506 233.59 28.551 233.59 29.5017V39.7736H228.084V19.5909H232.255L233.067 22.9848H233.338C233.735 22.2988 234.228 21.673 234.818 21.1073C235.42 20.5296 236.1 20.0723 236.858 19.7353C237.628 19.3863 238.459 19.2118 239.349 19.2118ZM253.195 19.2118C255.061 19.2118 256.667 19.5729 258.015 20.295C259.363 21.005 260.404 22.04 261.138 23.4C261.873 24.7599 262.24 26.4208 262.24 28.3825V31.0542H249.224C249.284 32.6067 249.747 33.8283 250.614 34.7189C251.492 35.5974 252.708 36.0367 254.26 36.0367C255.548 36.0367 256.728 35.9043 257.799 35.6395C258.87 35.3748 259.971 34.9776 261.102 34.4481V38.7085C260.103 39.2019 259.056 39.5629 257.961 39.7916C256.878 40.0203 255.56 40.1346 254.008 40.1346C251.986 40.1346 250.193 39.7615 248.628 39.0154C247.076 38.2692 245.854 37.1319 244.963 35.6034C244.085 34.075 243.646 32.1494 243.646 29.8267C243.646 27.4678 244.043 25.5061 244.837 23.9416C245.643 22.365 246.763 21.1856 248.195 20.4033C249.627 19.609 251.294 19.2118 253.195 19.2118ZM253.231 23.1292C252.16 23.1292 251.27 23.4722 250.56 24.1582C249.862 24.8442 249.459 25.9213 249.35 27.3896H257.077C257.065 26.5712 256.914 25.8431 256.625 25.2052C256.349 24.5674 255.927 24.0619 255.362 23.6888C254.808 23.3157 254.098 23.1292 253.231 23.1292Z" fill="#7BA769"/>
<path d="M25.0463 71.4592L27.1675 61.5213H28.4943L28.2596 63.4258H28.2777C28.5064 63.1129 28.7801 62.797 29.0991 62.4781C29.424 62.1531 29.8001 61.8823 30.2274 61.6657C30.6606 61.4431 31.151 61.3317 31.6986 61.3317C32.2282 61.3317 32.6825 61.431 33.0616 61.6296C33.4407 61.8222 33.7325 62.105 33.9371 62.4781C34.1417 62.8451 34.244 63.2904 34.244 63.814C34.244 64.0908 34.223 64.3706 34.1808 64.6534C34.1387 64.9362 34.0936 65.1889 34.0454 65.4116L32.7276 71.4592H31.13L32.4659 65.213C32.52 64.9422 32.5621 64.7106 32.5922 64.518C32.6283 64.3254 32.6464 64.1449 32.6464 63.9764C32.6464 63.5552 32.532 63.2363 32.3034 63.0196C32.0747 62.803 31.7377 62.6947 31.2924 62.6947C30.8532 62.6947 30.3898 62.8451 29.9024 63.146C29.415 63.4469 28.9637 63.9223 28.5485 64.5722C28.1333 65.216 27.8113 66.0585 27.5827 67.0995L26.653 71.4592H25.0463ZM38.8113 71.6397C38.2757 71.6397 37.8064 71.5103 37.4032 71.2516C37 70.9928 36.6871 70.6107 36.4645 70.1052C36.2418 69.5998 36.1305 68.983 36.1305 68.2549C36.1305 67.5267 36.2057 66.8257 36.3562 66.1517C36.5126 65.4778 36.7323 64.852 37.0151 64.2743C37.2979 63.6966 37.6379 63.1911 38.035 62.7579C38.4382 62.3246 38.8895 61.9876 39.389 61.7469C39.8884 61.5062 40.427 61.3859 41.0047 61.3859C41.45 61.3859 41.8351 61.4701 42.16 61.6386C42.491 61.8071 42.7648 62.0298 42.9814 62.3066C43.2041 62.5774 43.3786 62.8662 43.5049 63.1731H43.5952L44.1729 61.5664H45.3192L43.2251 71.4592H42.0246L42.2954 69.5456H42.2232C41.9524 69.9067 41.6425 70.2466 41.2935 70.5656C40.9445 70.8845 40.5624 71.1432 40.1472 71.3418C39.732 71.5404 39.2867 71.6397 38.8113 71.6397ZM39.2987 70.3941C39.7621 70.3941 40.2194 70.2256 40.6707 69.8886C41.128 69.5456 41.5372 69.0853 41.8983 68.5076C42.2653 67.9239 42.5451 67.268 42.7377 66.5399C42.834 66.1848 42.8972 65.8599 42.9273 65.565C42.9634 65.2642 42.9814 64.9844 42.9814 64.7256C42.9814 64.1058 42.8159 63.6064 42.485 63.2272C42.16 62.8421 41.7147 62.6496 41.1491 62.6496C40.7459 62.6496 40.3668 62.7519 40.0118 62.9565C39.6568 63.155 39.3348 63.4349 39.046 63.7959C38.7632 64.1509 38.5194 64.5661 38.3149 65.0415C38.1103 65.5109 37.9508 66.0224 37.8365 66.576C37.7281 67.1296 37.674 67.6982 37.674 68.2819C37.674 68.9739 37.8154 69.5005 38.0982 69.8615C38.381 70.2166 38.7812 70.3941 39.2987 70.3941ZM47.7653 71.4592L46.5738 61.5664H48.0903L48.695 67.262C48.7311 67.5809 48.7642 67.9419 48.7943 68.3451C48.8244 68.7483 48.8485 69.1274 48.8665 69.4824C48.8906 69.8375 48.9026 70.1052 48.9026 70.2858H48.9568C49.0892 69.9909 49.2426 69.6569 49.4171 69.2838C49.5976 68.9047 49.7782 68.5317 49.9587 68.1646C50.1392 67.7915 50.2987 67.4726 50.4371 67.2078L53.4879 61.5664H55.0946L49.7059 71.4592H47.7653ZM54.7336 71.4592L56.8367 61.5664H58.344L56.2409 71.4592H54.7336ZM58.1003 59.8334C57.8596 59.8334 57.6581 59.7642 57.4956 59.6258C57.3391 59.4814 57.2609 59.2798 57.2609 59.021C57.2609 58.8225 57.3 58.6359 57.3782 58.4614C57.4625 58.2869 57.5798 58.1485 57.7303 58.0462C57.8867 57.9379 58.0763 57.8837 58.2989 57.8837C58.5637 57.8837 58.7623 57.9529 58.8946 58.0913C59.027 58.2297 59.0932 58.4223 59.0932 58.669C59.0932 59.024 58.9909 59.3069 58.7863 59.5175C58.5817 59.7281 58.3531 59.8334 58.1003 59.8334ZM61.7469 75.9001C60.5856 75.9001 59.6769 75.6774 59.021 75.2321C58.3651 74.7929 58.0372 74.1731 58.0372 73.3727C58.0372 72.7289 58.2568 72.1692 58.6961 71.6938C59.1293 71.2245 59.8274 70.8303 60.7902 70.5114C60.5615 70.3911 60.387 70.2406 60.2666 70.0601C60.1523 69.8736 60.0951 69.6599 60.0951 69.4192C60.0951 69.0101 60.2456 68.658 60.5464 68.3632C60.8473 68.0623 61.2685 67.7855 61.8101 67.5328C61.425 67.3342 61.1151 67.0423 60.8804 66.6572C60.6457 66.2721 60.5284 65.8298 60.5284 65.3304C60.5344 64.7346 60.6367 64.19 60.8353 63.6966C61.0339 63.2032 61.3137 62.782 61.6747 62.4329C62.0117 62.108 62.4058 61.8553 62.8572 61.6747C63.3145 61.4942 63.8109 61.404 64.3465 61.404C64.5752 61.404 64.8038 61.419 65.0325 61.4491C65.2611 61.4792 65.4868 61.5243 65.7094 61.5845H69.0492L68.8325 62.4961L66.8738 62.6947C67.0122 62.8812 67.1145 63.1009 67.1807 63.3536C67.2529 63.6064 67.286 63.8862 67.28 64.1931C67.28 64.7828 67.1807 65.3153 66.9821 65.7907C66.7836 66.2661 66.5007 66.6692 66.1337 67.0002C65.8027 67.2951 65.4086 67.5237 64.9512 67.6862C64.4999 67.8427 63.9945 67.9239 63.4348 67.9299C63.2724 67.9299 63.1279 67.9239 63.0016 67.9119C62.8752 67.8998 62.7669 67.8818 62.6766 67.8577C62.2374 68.0142 61.9124 68.1977 61.7018 68.4083C61.4912 68.6189 61.3859 68.8416 61.3859 69.0762C61.3859 69.2447 61.437 69.3801 61.5393 69.4824C61.6356 69.5727 61.768 69.6419 61.9365 69.69C62.111 69.7321 62.3246 69.7683 62.5773 69.7983L63.6424 69.9157C64.3645 69.9999 64.9543 70.1443 65.4116 70.3489C65.8689 70.5475 66.2059 70.8183 66.4225 71.1613C66.6391 71.5043 66.7475 71.9285 66.7475 72.434C66.7475 73.0719 66.6 73.6225 66.3052 74.0858C66.0103 74.5552 65.5861 74.9373 65.0325 75.2321C64.6113 75.4488 64.1238 75.6142 63.5702 75.7286C63.0226 75.8429 62.4149 75.9001 61.7469 75.9001ZM61.8101 74.8079C62.3577 74.8079 62.8451 74.7598 63.2724 74.6635C63.7056 74.5672 64.0727 74.4288 64.3736 74.2483C64.6985 74.0497 64.9452 73.809 65.1137 73.5262C65.2882 73.2434 65.3755 72.9184 65.3755 72.5513C65.3755 72.3889 65.3484 72.2414 65.2942 72.1091C65.2461 71.9767 65.1679 71.8593 65.0596 71.757C64.8911 71.5946 64.6504 71.4622 64.3375 71.3599C64.0246 71.2576 63.6274 71.1854 63.146 71.1432L61.7018 70.9988C61.1963 71.1071 60.7721 71.2666 60.4291 71.4772C60.0921 71.6938 59.8364 71.9496 59.6619 72.2444C59.4874 72.5393 59.4001 72.8703 59.4001 73.2373C59.4001 73.7308 59.6047 74.1159 60.0139 74.3927C60.4231 74.6695 61.0218 74.8079 61.8101 74.8079ZM63.498 66.937C64.0155 66.937 64.4518 66.8077 64.8068 66.5489C65.1679 66.2841 65.4447 65.9351 65.6372 65.5019C65.8298 65.0626 65.9261 64.5842 65.9261 64.0667C65.9261 63.8079 65.89 63.5793 65.8178 63.3807C65.7516 63.1761 65.6493 63.0076 65.5109 62.8752C65.3785 62.7368 65.21 62.6315 65.0054 62.5593C64.8068 62.4871 64.5782 62.451 64.3194 62.451C63.9403 62.451 63.6003 62.5262 63.2994 62.6766C62.9986 62.8211 62.7428 63.0227 62.5322 63.2814C62.3276 63.5402 62.1682 63.841 62.0538 64.184C61.9455 64.527 61.8914 64.8941 61.8914 65.2852C61.8914 65.538 61.9244 65.7636 61.9906 65.9622C62.0568 66.1608 62.1531 66.3293 62.2795 66.4677C62.5563 66.7806 62.9625 66.937 63.498 66.937ZM72.0639 71.6397C71.5284 71.6397 71.059 71.5103 70.6558 71.2516C70.2526 70.9928 69.9397 70.6107 69.7171 70.1052C69.4944 69.5998 69.3831 68.983 69.3831 68.2549C69.3831 67.5267 69.4583 66.8257 69.6088 66.1517C69.7652 65.4778 69.9849 64.852 70.2677 64.2743C70.5505 63.6966 70.8905 63.1911 71.2877 62.7579C71.6908 62.3246 72.1421 61.9876 72.6416 61.7469C73.141 61.5062 73.6796 61.3859 74.2573 61.3859C74.7026 61.3859 75.0877 61.4701 75.4126 61.6386C75.7436 61.8071 76.0174 62.0298 76.234 62.3066C76.4567 62.5774 76.6312 62.8662 76.7575 63.1731H76.8478L77.4255 61.5664H78.5718L76.4777 71.4592H75.2772L75.548 69.5456H75.4758C75.205 69.9067 74.8951 70.2466 74.5461 70.5656C74.1971 70.8845 73.815 71.1432 73.3998 71.3418C72.9846 71.5404 72.5393 71.6397 72.0639 71.6397ZM72.5513 70.3941C73.0147 70.3941 73.472 70.2256 73.9233 69.8886C74.3806 69.5456 74.7898 69.0853 75.1509 68.5076C75.5179 67.9239 75.7978 67.268 75.9903 66.5399C76.0866 66.1848 76.1498 65.8599 76.1799 65.565C76.216 65.2642 76.234 64.9844 76.234 64.7256C76.234 64.1058 76.0685 63.6064 75.7376 63.2272C75.4126 62.8421 74.9673 62.6496 74.4017 62.6496C73.9985 62.6496 73.6194 62.7519 73.2644 62.9565C72.9094 63.155 72.5874 63.4349 72.2986 63.7959C72.0158 64.1509 71.7721 64.5661 71.5675 65.0415C71.3629 65.5109 71.2034 66.0224 71.0891 66.576C70.9808 67.1296 70.9266 67.6982 70.9266 68.2819C70.9266 68.9739 71.068 69.5005 71.3508 69.8615C71.6337 70.2166 72.0338 70.3941 72.5513 70.3941ZM82.2816 71.6397C81.6257 71.6397 81.0781 71.4832 80.6388 71.1703C80.2056 70.8514 79.9889 70.3068 79.9889 69.5366C79.9889 69.35 80.001 69.1485 80.025 68.9318C80.0491 68.7092 80.0882 68.4805 80.1424 68.2458L81.3068 62.7128H79.7813L79.9258 62.0177L81.5685 61.3859L82.6517 59.2918H83.5453L83.0488 61.5664H85.5942L85.3595 62.7128H82.8232L81.6498 68.2639C81.6076 68.4324 81.5685 68.6129 81.5324 68.8055C81.5023 68.998 81.4873 69.1815 81.4873 69.3561C81.4873 69.6569 81.5655 69.9097 81.722 70.1143C81.8784 70.3128 82.1402 70.4121 82.5073 70.4121C82.7359 70.4121 82.9525 70.3911 83.1571 70.3489C83.3678 70.3068 83.5904 70.2466 83.8251 70.1684V71.3238C83.6746 71.396 83.446 71.4652 83.1391 71.5314C82.8382 71.6036 82.5524 71.6397 82.2816 71.6397ZM85.5671 71.4592L87.6703 61.5664H89.1776L87.0745 71.4592H85.5671ZM88.9339 59.8334C88.6932 59.8334 88.4916 59.7642 88.3292 59.6258C88.1727 59.4814 88.0945 59.2798 88.0945 59.021C88.0945 58.8225 88.1336 58.6359 88.2118 58.4614C88.2961 58.2869 88.4134 58.1485 88.5639 58.0462C88.7203 57.9379 88.9099 57.8837 89.1325 57.8837C89.3973 57.8837 89.5959 57.9529 89.7282 58.0913C89.8606 58.2297 89.9268 58.4223 89.9268 58.669C89.9268 59.024 89.8245 59.3069 89.6199 59.5175C89.4153 59.7281 89.1867 59.8334 88.9339 59.8334ZM90.1796 71.4592L92.3007 61.5213H93.6276L93.3929 63.4258H93.4109C93.6396 63.1129 93.9134 62.797 94.2323 62.4781C94.5573 62.1531 94.9334 61.8823 95.3606 61.6657C95.7939 61.4431 96.2843 61.3317 96.8319 61.3317C97.3614 61.3317 97.8157 61.431 98.1948 61.6296C98.5739 61.8222 98.8658 62.105 99.0704 62.4781C99.275 62.8451 99.3773 63.2904 99.3773 63.814C99.3773 64.0908 99.3562 64.3706 99.3141 64.6534C99.272 64.9362 99.2268 65.1889 99.1787 65.4116L97.8609 71.4592H96.2632L97.5991 65.213C97.6533 64.9422 97.6954 64.7106 97.7255 64.518C97.7616 64.3254 97.7796 64.1449 97.7796 63.9764C97.7796 63.5552 97.6653 63.2363 97.4366 63.0196C97.208 62.803 96.871 62.6947 96.4257 62.6947C95.9864 62.6947 95.5231 62.8451 95.0357 63.146C94.5482 63.4469 94.0969 63.9223 93.6817 64.5722C93.2665 65.216 92.9446 66.0585 92.7159 67.0995L91.7862 71.4592H90.1796ZM103.231 75.9001C102.07 75.9001 101.161 75.6774 100.506 75.2321C99.8496 74.7929 99.5217 74.1731 99.5217 73.3727C99.5217 72.7289 99.7413 72.1692 100.181 71.6938C100.614 71.2245 101.312 70.8303 102.275 70.5114C102.046 70.3911 101.872 70.2406 101.751 70.0601C101.637 69.8736 101.58 69.6599 101.58 69.4192C101.58 69.0101 101.73 68.658 102.031 68.3632C102.332 68.0623 102.753 67.7855 103.295 67.5328C102.91 67.3342 102.6 67.0423 102.365 66.6572C102.13 66.2721 102.013 65.8298 102.013 65.3304C102.019 64.7346 102.121 64.19 102.32 63.6966C102.518 63.2032 102.798 62.782 103.159 62.4329C103.496 62.108 103.89 61.8553 104.342 61.6747C104.799 61.4942 105.295 61.404 105.831 61.404C106.06 61.404 106.288 61.419 106.517 61.4491C106.746 61.4792 106.971 61.5243 107.194 61.5845H110.534L110.317 62.4961L108.358 62.6947C108.497 62.8812 108.599 63.1009 108.665 63.3536C108.737 63.6064 108.771 63.8862 108.765 64.1931C108.765 64.7828 108.665 65.3153 108.467 65.7907C108.268 66.2661 107.985 66.6692 107.618 67.0002C107.287 67.2951 106.893 67.5237 106.436 67.6862C105.984 67.8427 105.479 67.9239 104.919 67.9299C104.757 67.9299 104.612 67.9239 104.486 67.9119C104.36 67.8998 104.251 67.8818 104.161 67.8577C103.722 68.0142 103.397 68.1977 103.186 68.4083C102.976 68.6189 102.87 68.8416 102.87 69.0762C102.87 69.2447 102.922 69.3801 103.024 69.4824C103.12 69.5727 103.253 69.6419 103.421 69.69C103.596 69.7321 103.809 69.7683 104.062 69.7983L105.127 69.9157C105.849 69.9999 106.439 70.1443 106.896 70.3489C107.353 70.5475 107.69 70.8183 107.907 71.1613C108.124 71.5043 108.232 71.9285 108.232 72.434C108.232 73.0719 108.085 73.6225 107.79 74.0858C107.495 74.5552 107.071 74.9373 106.517 75.2321C106.096 75.4488 105.608 75.6142 105.055 75.7286C104.507 75.8429 103.899 75.9001 103.231 75.9001ZM103.295 74.8079C103.842 74.8079 104.33 74.7598 104.757 74.6635C105.19 74.5672 105.557 74.4288 105.858 74.2483C106.183 74.0497 106.43 73.809 106.598 73.5262C106.773 73.2434 106.86 72.9184 106.86 72.5513C106.86 72.3889 106.833 72.2414 106.779 72.1091C106.731 71.9767 106.652 71.8593 106.544 71.757C106.376 71.5946 106.135 71.4622 105.822 71.3599C105.509 71.2576 105.112 71.1854 104.631 71.1432L103.186 70.9988C102.681 71.1071 102.257 71.2666 101.914 71.4772C101.577 71.6938 101.321 71.9496 101.146 72.2444C100.972 72.5393 100.885 72.8703 100.885 73.2373C100.885 73.7308 101.089 74.1159 101.498 74.3927C101.908 74.6695 102.506 74.8079 103.295 74.8079ZM104.983 66.937C105.5 66.937 105.936 66.8077 106.291 66.5489C106.652 66.2841 106.929 65.9351 107.122 65.5019C107.314 65.0626 107.411 64.5842 107.411 64.0667C107.411 63.8079 107.375 63.5793 107.302 63.3807C107.236 63.1761 107.134 63.0076 106.995 62.8752C106.863 62.7368 106.695 62.6315 106.49 62.5593C106.291 62.4871 106.063 62.451 105.804 62.451C105.425 62.451 105.085 62.5262 104.784 62.6766C104.483 62.8211 104.227 63.0227 104.017 63.2814C103.812 63.5402 103.653 63.841 103.538 64.184C103.43 64.527 103.376 64.8941 103.376 65.2852C103.376 65.538 103.409 65.7636 103.475 65.9622C103.541 66.1608 103.638 66.3293 103.764 66.4677C104.041 66.7806 104.447 66.937 104.983 66.937ZM115.3 71.4592L118.278 57.4144H119.777L118.982 61.061C118.934 61.3197 118.874 61.5875 118.802 61.8643C118.736 62.1351 118.666 62.4089 118.594 62.6857C118.522 62.9565 118.45 63.2242 118.377 63.489H118.468C118.702 63.1701 118.979 62.8512 119.298 62.5322C119.623 62.2133 119.999 61.9455 120.426 61.7289C120.86 61.5123 121.347 61.404 121.889 61.404C122.406 61.404 122.848 61.4972 123.216 61.6838C123.589 61.8703 123.874 62.1501 124.073 62.5232C124.278 62.8903 124.38 63.3536 124.38 63.9132C124.38 64.1479 124.362 64.3886 124.326 64.6353C124.29 64.876 124.245 65.1288 124.19 65.3935L122.891 71.4592H121.383L122.701 65.2311C122.761 64.9603 122.803 64.7286 122.827 64.5361C122.851 64.3435 122.864 64.175 122.864 64.0306C122.864 63.5913 122.752 63.2513 122.53 63.0106C122.313 62.7699 121.964 62.6496 121.483 62.6496C121.031 62.6496 120.556 62.803 120.056 63.1099C119.563 63.4108 119.106 63.8892 118.684 64.5451C118.269 65.195 117.95 66.0464 117.728 67.0995L116.807 71.4592H115.3ZM129.913 71.6397C129.173 71.6397 128.535 71.4923 127.999 71.1974C127.464 70.8965 127.052 70.4693 126.763 69.9157C126.48 69.3561 126.339 68.6881 126.339 67.9119C126.339 67.1115 126.453 66.3263 126.682 65.556C126.916 64.7798 127.25 64.0787 127.684 63.4529C128.117 62.8211 128.637 62.3186 129.245 61.9455C129.859 61.5724 130.545 61.3859 131.303 61.3859C132.212 61.3859 132.901 61.5905 133.37 61.9997C133.839 62.4029 134.074 62.9595 134.074 63.6695C134.074 64.169 133.957 64.6293 133.722 65.0505C133.493 65.4718 133.138 65.8388 132.657 66.1517C132.182 66.4586 131.577 66.6993 130.843 66.8738C130.115 67.0423 129.251 67.1266 128.252 67.1266H127.909C127.897 67.2349 127.885 67.3552 127.873 67.4876C127.867 67.62 127.864 67.7434 127.864 67.8577C127.864 68.652 128.057 69.2748 128.442 69.7261C128.827 70.1714 129.405 70.3941 130.175 70.3941C130.65 70.3941 131.098 70.3279 131.52 70.1955C131.947 70.0571 132.392 69.8766 132.856 69.6539V70.9447C132.41 71.1493 131.962 71.3178 131.511 71.4501C131.059 71.5765 130.527 71.6397 129.913 71.6397ZM128.126 65.899H128.342C129.113 65.899 129.82 65.8328 130.464 65.7004C131.107 65.562 131.625 65.3394 132.016 65.0325C132.407 64.7196 132.603 64.3044 132.603 63.7869C132.603 63.4499 132.488 63.1731 132.26 62.9565C132.031 62.7398 131.682 62.6315 131.213 62.6315C130.798 62.6315 130.388 62.7609 129.985 63.0196C129.582 63.2724 129.215 63.6425 128.884 64.1299C128.559 64.6173 128.306 65.207 128.126 65.899ZM138.208 71.6397C137.673 71.6397 137.203 71.5103 136.8 71.2516C136.397 70.9928 136.084 70.6107 135.861 70.1052C135.639 69.5998 135.527 68.983 135.527 68.2549C135.527 67.5267 135.603 66.8257 135.753 66.1517C135.909 65.4778 136.129 64.852 136.412 64.2743C136.695 63.6966 137.035 63.1911 137.432 62.7579C137.835 62.3246 138.286 61.9876 138.786 61.7469C139.285 61.5062 139.824 61.3859 140.401 61.3859C140.847 61.3859 141.232 61.4701 141.557 61.6386C141.888 61.8071 142.162 62.0298 142.378 62.3066C142.601 62.5774 142.775 62.8662 142.902 63.1731H142.992L143.57 61.5664H144.716L142.622 71.4592H141.421L141.692 69.5456H141.62C141.349 69.9067 141.039 70.2466 140.69 70.5656C140.341 70.8845 139.959 71.1432 139.544 71.3418C139.129 71.5404 138.683 71.6397 138.208 71.6397ZM138.696 70.3941C139.159 70.3941 139.616 70.2256 140.068 69.8886C140.525 69.5456 140.934 69.0853 141.295 68.5076C141.662 67.9239 141.942 67.268 142.135 66.5399C142.231 66.1848 142.294 65.8599 142.324 65.565C142.36 65.2642 142.378 64.9844 142.378 64.7256C142.378 64.1058 142.213 63.6064 141.882 63.2272C141.557 62.8421 141.112 62.6496 140.546 62.6496C140.143 62.6496 139.764 62.7519 139.409 62.9565C139.054 63.155 138.732 63.4349 138.443 63.7959C138.16 64.1509 137.916 64.5661 137.712 65.0415C137.507 65.5109 137.348 66.0224 137.233 66.576C137.125 67.1296 137.071 67.6982 137.071 68.2819C137.071 68.9739 137.212 69.5005 137.495 69.8615C137.778 70.2166 138.178 70.3941 138.696 70.3941ZM145.592 71.4592L148.588 57.4144H150.087L147.099 71.4592H145.592ZM153.101 71.6397C152.445 71.6397 151.898 71.4832 151.459 71.1703C151.025 70.8514 150.809 70.3068 150.809 69.5366C150.809 69.35 150.821 69.1485 150.845 68.9318C150.869 68.7092 150.908 68.4805 150.962 68.2458L152.127 62.7128H150.601L150.746 62.0177L152.388 61.3859L153.471 59.2918H154.365L153.869 61.5664H156.414L156.179 62.7128H153.643L152.47 68.2639C152.427 68.4324 152.388 68.6129 152.352 68.8055C152.322 68.998 152.307 69.1815 152.307 69.3561C152.307 69.6569 152.385 69.9097 152.542 70.1143C152.698 70.3128 152.96 70.4121 153.327 70.4121C153.556 70.4121 153.772 70.3911 153.977 70.3489C154.188 70.3068 154.41 70.2466 154.645 70.1684V71.3238C154.494 71.396 154.266 71.4652 153.959 71.5314C153.658 71.6036 153.372 71.6397 153.101 71.6397ZM156.387 71.4592L159.366 57.4144H160.864L160.07 61.061C160.021 61.3197 159.961 61.5875 159.889 61.8643C159.823 62.1351 159.754 62.4089 159.681 62.6857C159.609 62.9565 159.537 63.2242 159.465 63.489H159.555C159.79 63.1701 160.067 62.8512 160.386 62.5322C160.71 62.2133 161.087 61.9455 161.514 61.7289C161.947 61.5123 162.434 61.404 162.976 61.404C163.494 61.404 163.936 61.4972 164.303 61.6838C164.676 61.8703 164.962 62.1501 165.16 62.5232C165.365 62.8903 165.467 63.3536 165.467 63.9132C165.467 64.1479 165.449 64.3886 165.413 64.6353C165.377 64.876 165.332 65.1288 165.278 65.3935L163.978 71.4592H162.471L163.788 65.2311C163.849 64.9603 163.891 64.7286 163.915 64.5361C163.939 64.3435 163.951 64.175 163.951 64.0306C163.951 63.5913 163.84 63.2513 163.617 63.0106C163.4 62.7699 163.051 62.6496 162.57 62.6496C162.119 62.6496 161.643 62.803 161.144 63.1099C160.65 63.4108 160.193 63.8892 159.772 64.5451C159.357 65.195 159.038 66.0464 158.815 67.0995L157.894 71.4592H156.387ZM174.656 71.6397C174 71.6397 173.453 71.4832 173.013 71.1703C172.58 70.8514 172.363 70.3068 172.363 69.5366C172.363 69.35 172.375 69.1485 172.399 68.9318C172.424 68.7092 172.463 68.4805 172.517 68.2458L173.681 62.7128H172.156L172.3 62.0177L173.943 61.3859L175.026 59.2918H175.92L175.423 61.5664H177.969L177.734 62.7128H175.198L174.024 68.2639C173.982 68.4324 173.943 68.6129 173.907 68.8055C173.877 68.998 173.862 69.1815 173.862 69.3561C173.862 69.6569 173.94 69.9097 174.096 70.1143C174.253 70.3128 174.515 70.4121 174.882 70.4121C175.11 70.4121 175.327 70.3911 175.532 70.3489C175.742 70.3068 175.965 70.2466 176.2 70.1684V71.3238C176.049 71.396 175.82 71.4652 175.514 71.5314C175.213 71.6036 174.927 71.6397 174.656 71.6397ZM181.976 71.6036C181.218 71.6036 180.565 71.4501 180.018 71.1432C179.47 70.8303 179.049 70.3911 178.754 69.8254C178.465 69.2538 178.321 68.5798 178.321 67.8035C178.321 67.1777 178.39 66.5609 178.528 65.9532C178.667 65.3394 178.871 64.7617 179.142 64.2201C179.413 63.6725 179.747 63.1911 180.144 62.7759C180.547 62.3547 181.01 62.0268 181.534 61.7921C182.058 61.5514 182.641 61.431 183.285 61.431C184.055 61.431 184.711 61.5875 185.253 61.9004C185.8 62.2073 186.219 62.6466 186.507 63.2182C186.802 63.7899 186.95 64.4669 186.95 65.2491C186.95 65.8629 186.881 66.4737 186.742 67.0814C186.61 67.6892 186.408 68.2669 186.137 68.8145C185.873 69.3561 185.539 69.8375 185.135 70.2587C184.738 70.6739 184.275 71.0018 183.745 71.2425C183.222 71.4832 182.632 71.6036 181.976 71.6036ZM182.067 70.358C182.44 70.358 182.795 70.2797 183.132 70.1233C183.469 69.9668 183.776 69.7412 184.052 69.4463C184.329 69.1454 184.567 68.7814 184.765 68.3541C184.97 67.9209 185.126 67.4305 185.235 66.8829C185.349 66.3353 185.406 65.7335 185.406 65.0776C185.406 64.6865 185.337 64.3074 185.199 63.9403C185.06 63.5733 184.838 63.2724 184.531 63.0377C184.224 62.797 183.815 62.6766 183.303 62.6766C182.882 62.6766 182.491 62.7639 182.13 62.9384C181.775 63.1129 181.456 63.3596 181.173 63.6786C180.89 63.9975 180.649 64.3736 180.451 64.8068C180.258 65.2401 180.108 65.7155 180 66.233C179.897 66.7505 179.846 67.2951 179.846 67.8667C179.846 68.655 180.039 69.2688 180.424 69.7081C180.809 70.1413 181.356 70.358 182.067 70.358ZM190.696 75.9001C189.534 75.9001 188.626 75.6774 187.97 75.2321C187.314 74.7929 186.986 74.1731 186.986 73.3727C186.986 72.7289 187.205 72.1692 187.645 71.6938C188.078 71.2245 188.776 70.8303 189.739 70.5114C189.51 70.3911 189.336 70.2406 189.215 70.0601C189.101 69.8736 189.044 69.6599 189.044 69.4192C189.044 69.0101 189.194 68.658 189.495 68.3632C189.796 68.0623 190.217 67.7855 190.759 67.5328C190.374 67.3342 190.064 67.0423 189.829 66.6572C189.594 66.2721 189.477 65.8298 189.477 65.3304C189.483 64.7346 189.585 64.19 189.784 63.6966C189.983 63.2032 190.262 62.782 190.623 62.4329C190.96 62.108 191.355 61.8553 191.806 61.6747C192.263 61.4942 192.76 61.404 193.295 61.404C193.524 61.404 193.752 61.419 193.981 61.4491C194.21 61.4792 194.435 61.5243 194.658 61.5845H197.998L197.781 62.4961L195.823 62.6947C195.961 62.8812 196.063 63.1009 196.129 63.3536C196.202 63.6064 196.235 63.8862 196.229 64.1931C196.229 64.7828 196.129 65.3153 195.931 65.7907C195.732 66.2661 195.449 66.6692 195.082 67.0002C194.751 67.2951 194.357 67.5237 193.9 67.6862C193.449 67.8427 192.943 67.9239 192.384 67.9299C192.221 67.9299 192.077 67.9239 191.95 67.9119C191.824 67.8998 191.716 67.8818 191.625 67.8577C191.186 68.0142 190.861 68.1977 190.65 68.4083C190.44 68.6189 190.335 68.8416 190.335 69.0762C190.335 69.2447 190.386 69.3801 190.488 69.4824C190.584 69.5727 190.717 69.6419 190.885 69.69C191.06 69.7321 191.273 69.7683 191.526 69.7983L192.591 69.9157C193.313 69.9999 193.903 70.1443 194.36 70.3489C194.818 70.5475 195.155 70.8183 195.371 71.1613C195.588 71.5043 195.696 71.9285 195.696 72.434C195.696 73.0719 195.549 73.6225 195.254 74.0858C194.959 74.5552 194.535 74.9373 193.981 75.2321C193.56 75.4488 193.073 75.6142 192.519 75.7286C191.971 75.8429 191.364 75.9001 190.696 75.9001ZM190.759 74.8079C191.306 74.8079 191.794 74.7598 192.221 74.6635C192.654 74.5672 193.021 74.4288 193.322 74.2483C193.647 74.0497 193.894 73.809 194.062 73.5262C194.237 73.2434 194.324 72.9184 194.324 72.5513C194.324 72.3889 194.297 72.2414 194.243 72.1091C194.195 71.9767 194.117 71.8593 194.008 71.757C193.84 71.5946 193.599 71.4622 193.286 71.3599C192.973 71.2576 192.576 71.1854 192.095 71.1432L190.65 70.9988C190.145 71.1071 189.721 71.2666 189.378 71.4772C189.041 71.6938 188.785 71.9496 188.611 72.2444C188.436 72.5393 188.349 72.8703 188.349 73.2373C188.349 73.7308 188.553 74.1159 188.963 74.3927C189.372 74.6695 189.97 74.8079 190.759 74.8079ZM192.447 66.937C192.964 66.937 193.4 66.8077 193.755 66.5489C194.117 66.2841 194.393 65.9351 194.586 65.5019C194.778 65.0626 194.875 64.5842 194.875 64.0667C194.875 63.8079 194.839 63.5793 194.766 63.3807C194.7 63.1761 194.598 63.0076 194.46 62.8752C194.327 62.7368 194.159 62.6315 193.954 62.5593C193.755 62.4871 193.527 62.451 193.268 62.451C192.889 62.451 192.549 62.5262 192.248 62.6766C191.947 62.8211 191.691 63.0227 191.481 63.2814C191.276 63.5402 191.117 63.841 191.002 64.184C190.894 64.527 190.84 64.8941 190.84 65.2852C190.84 65.538 190.873 65.7636 190.939 65.9622C191.006 66.1608 191.102 66.3293 191.228 66.4677C191.505 66.7806 191.911 66.937 192.447 66.937ZM201.924 71.6397C201.184 71.6397 200.546 71.4923 200.011 71.1974C199.475 70.8965 199.063 70.4693 198.774 69.9157C198.491 69.3561 198.35 68.6881 198.35 67.9119C198.35 67.1115 198.464 66.3263 198.693 65.556C198.928 64.7798 199.261 64.0787 199.695 63.4529C200.128 62.8211 200.649 62.3186 201.256 61.9455C201.87 61.5724 202.556 61.3859 203.314 61.3859C204.223 61.3859 204.912 61.5905 205.381 61.9997C205.851 62.4029 206.085 62.9595 206.085 63.6695C206.085 64.169 205.968 64.6293 205.733 65.0505C205.505 65.4718 205.15 65.8388 204.668 66.1517C204.193 66.4586 203.588 66.6993 202.854 66.8738C202.126 67.0423 201.262 67.1266 200.263 67.1266H199.92C199.908 67.2349 199.896 67.3552 199.884 67.4876C199.878 67.62 199.875 67.7434 199.875 67.8577C199.875 68.652 200.068 69.2748 200.453 69.7261C200.838 70.1714 201.416 70.3941 202.186 70.3941C202.661 70.3941 203.11 70.3279 203.531 70.1955C203.958 70.0571 204.403 69.8766 204.867 69.6539V70.9447C204.421 71.1493 203.973 71.3178 203.522 71.4501C203.071 71.5765 202.538 71.6397 201.924 71.6397ZM200.137 65.899H200.354C201.124 65.899 201.831 65.8328 202.475 65.7004C203.119 65.562 203.636 65.3394 204.027 65.0325C204.418 64.7196 204.614 64.3044 204.614 63.7869C204.614 63.4499 204.5 63.1731 204.271 62.9565C204.042 62.7398 203.693 62.6315 203.224 62.6315C202.809 62.6315 202.4 62.7609 201.996 63.0196C201.593 63.2724 201.226 63.6425 200.895 64.1299C200.57 64.6173 200.318 65.207 200.137 65.899ZM209.985 71.6397C209.329 71.6397 208.781 71.4832 208.342 71.1703C207.909 70.8514 207.692 70.3068 207.692 69.5366C207.692 69.35 207.704 69.1485 207.728 68.9318C207.752 68.7092 207.791 68.4805 207.845 68.2458L209.01 62.7128H207.484L207.629 62.0177L209.272 61.3859L210.355 59.2918H211.248L210.752 61.5664H213.297L213.063 62.7128H210.526L209.353 68.2639C209.311 68.4324 209.272 68.6129 209.235 68.8055C209.205 68.998 209.19 69.1815 209.19 69.3561C209.19 69.6569 209.269 69.9097 209.425 70.1143C209.581 70.3128 209.843 70.4121 210.21 70.4121C210.439 70.4121 210.656 70.3911 210.86 70.3489C211.071 70.3068 211.293 70.2466 211.528 70.1684V71.3238C211.378 71.396 211.149 71.4652 210.842 71.5314C210.541 71.6036 210.255 71.6397 209.985 71.6397ZM213.27 71.4592L216.249 57.4144H217.747L216.953 61.061C216.905 61.3197 216.845 61.5875 216.772 61.8643C216.706 62.1351 216.637 62.4089 216.565 62.6857C216.493 62.9565 216.42 63.2242 216.348 63.489H216.438C216.673 63.1701 216.95 62.8512 217.269 62.5322C217.594 62.2133 217.97 61.9455 218.397 61.7289C218.83 61.5123 219.318 61.404 219.859 61.404C220.377 61.404 220.819 61.4972 221.186 61.6838C221.559 61.8703 221.845 62.1501 222.044 62.5232C222.248 62.8903 222.351 63.3536 222.351 63.9132C222.351 64.1479 222.333 64.3886 222.296 64.6353C222.26 64.876 222.215 65.1288 222.161 65.3935L220.861 71.4592H219.354L220.672 65.2311C220.732 64.9603 220.774 64.7286 220.798 64.5361C220.822 64.3435 220.834 64.175 220.834 64.0306C220.834 63.5913 220.723 63.2513 220.5 63.0106C220.284 62.7699 219.935 62.6496 219.453 62.6496C219.002 62.6496 218.526 62.803 218.027 63.1099C217.534 63.4108 217.076 63.8892 216.655 64.5451C216.24 65.195 215.921 66.0464 215.698 67.0995L214.778 71.4592H213.27ZM227.884 71.6397C227.143 71.6397 226.506 71.4923 225.97 71.1974C225.435 70.8965 225.022 70.4693 224.733 69.9157C224.451 69.3561 224.309 68.6881 224.309 67.9119C224.309 67.1115 224.424 66.3263 224.652 65.556C224.887 64.7798 225.221 64.0787 225.654 63.4529C226.087 62.8211 226.608 62.3186 227.216 61.9455C227.829 61.5724 228.515 61.3859 229.274 61.3859C230.182 61.3859 230.871 61.5905 231.341 61.9997C231.81 62.4029 232.045 62.9595 232.045 63.6695C232.045 64.169 231.927 64.6293 231.693 65.0505C231.464 65.4718 231.109 65.8388 230.628 66.1517C230.152 66.4586 229.547 66.6993 228.813 66.8738C228.085 67.0423 227.222 67.1266 226.223 67.1266H225.88C225.868 67.2349 225.856 67.3552 225.844 67.4876C225.838 67.62 225.835 67.7434 225.835 67.8577C225.835 68.652 226.027 69.2748 226.412 69.7261C226.797 70.1714 227.375 70.3941 228.145 70.3941C228.621 70.3941 229.069 70.3279 229.49 70.1955C229.918 70.0571 230.363 69.8766 230.826 69.6539V70.9447C230.381 71.1493 229.933 71.3178 229.481 71.4501C229.03 71.5765 228.497 71.6397 227.884 71.6397ZM226.096 65.899H226.313C227.083 65.899 227.79 65.8328 228.434 65.7004C229.078 65.562 229.596 65.3394 229.987 65.0325C230.378 64.7196 230.573 64.3044 230.573 63.7869C230.573 63.4499 230.459 63.1731 230.23 62.9565C230.002 62.7398 229.653 62.6315 229.183 62.6315C228.768 62.6315 228.359 62.7609 227.956 63.0196C227.553 63.2724 227.186 63.6425 226.855 64.1299C226.53 64.6173 226.277 65.207 226.096 65.899ZM233.128 71.4592L235.231 61.5664H236.459L236.224 63.48H236.314C236.567 63.137 236.838 62.806 237.127 62.4871C237.415 62.1622 237.743 61.8974 238.11 61.6928C238.483 61.4882 238.911 61.3859 239.392 61.3859C239.573 61.3859 239.756 61.3979 239.943 61.422C240.129 61.4401 240.304 61.4732 240.466 61.5213L240.141 62.8662C239.979 62.8301 239.819 62.803 239.663 62.785C239.512 62.7669 239.356 62.7579 239.194 62.7579C238.736 62.7579 238.312 62.8782 237.921 63.1189C237.53 63.3536 237.178 63.6695 236.865 64.0667C236.558 64.4638 236.296 64.9061 236.079 65.3935C235.869 65.881 235.709 66.3774 235.601 66.8829L234.635 71.4592H233.128Z" fill="#1E1E1E"/>
</svg>
